<?xml version="1.0" standalone="no"?>
<!DOCTYPE svg PUBLIC "-//W3C//DTD SVG 20010904//EN"
 "http://www.w3.org/TR/2001/REC-SVG-20010904/DTD/svg10.dtd">
<svg version="1.0" xmlns="http://www.w3.org/2000/svg"
 width="927.000000pt" height="927.000000pt" viewBox="0 0 927.000000 927.000000"
 preserveAspectRatio="xMidYMid meet">
<metadata>
Created by potrace 1.14, written by Peter Selinger 2001-2017
</metadata>
<g transform="translate(0.000000,927.000000) scale(0.100000,-0.100000)"
fill="#000000" stroke="none">
<path d="M4580 9266 c-3 -3 -41 -6 -83 -7 -59 -1 -77 -5 -77 -16 0 -8 -4 -12
-9 -9 -5 4 -12 0 -15 -6 -4 -7 -4 -3 -2 10 3 18 0 22 -22 22 -22 0 -24 -2 -12
-11 11 -8 4 -9 -27 -5 -40 6 -59 -6 -30 -17 7 -4 6 -6 -4 -6 -9 -1 -19 6 -23
14 -6 18 -84 14 -286 -15 -74 -11 -142 -20 -150 -20 -13 0 -13 -1 0 -11 12 -8
9 -9 -12 -5 -23 5 -181 -20 -249 -40 -11 -3 -18 -21 -22 -55 -8 -67 -35 -107
-103 -155 -51 -34 -65 -39 -117 -39 -54 0 -61 -3 -89 -34 -19 -22 -28 -40 -25
-53 4 -15 2 -18 -10 -14 -11 4 -13 2 -9 -9 4 -10 -1 -15 -15 -15 -11 0 -17 -4
-14 -10 3 -5 0 -10 -8 -10 -8 0 -17 -8 -21 -17 -3 -10 -11 -26 -18 -35 -10
-14 -10 -27 1 -65 18 -66 18 -78 2 -78 -8 0 -31 -15 -50 -33 -19 -18 -37 -28
-41 -23 -10 17 -80 18 -80 2 0 -6 15 -11 33 -13 48 -5 39 -22 -17 -30 -45 -6
-52 -4 -73 18 -12 14 -26 37 -29 52 -3 15 -9 36 -12 47 -8 26 -3 78 9 90 5 5
9 18 9 28 0 14 5 18 20 14 13 -3 20 0 20 10 0 10 6 12 20 8 26 -8 26 13 0 60
-13 24 -16 35 -7 35 7 0 8 3 2 8 -5 4 -11 25 -13 47 -1 21 -6 43 -10 47 -7 7
-146 -45 -183 -68 -5 -3 -2 -19 7 -36 17 -34 15 -110 -6 -148 -17 -32 -63 -70
-77 -65 -8 3 -13 -4 -13 -16 0 -16 -5 -18 -25 -13 -19 5 -25 2 -25 -11 0 -12
5 -15 22 -9 20 6 21 5 6 -10 -19 -18 -54 -21 -64 -5 -3 6 -15 9 -25 6 -11 -3
-17 -1 -13 4 3 5 -4 9 -15 9 -16 0 -21 6 -21 28 0 15 -5 33 -11 39 -5 5 -11
27 -12 47 -1 20 -6 36 -11 36 -11 0 -146 -73 -198 -108 -26 -17 -38 -32 -38
-48 0 -21 -44 -74 -62 -74 -4 0 -20 -12 -35 -27 -25 -24 -34 -27 -73 -23 -34
4 -53 0 -76 -15 -38 -23 -58 -51 -44 -60 6 -3 10 1 10 9 0 9 7 16 15 16 8 0
15 -5 15 -11 0 -5 4 -8 9 -5 5 4 7 -3 4 -14 -6 -21 3 -25 26 -11 9 6 11 16 6
32 -7 22 -7 22 16 8 13 -8 40 -16 59 -17 54 -3 134 -52 86 -52 -18 0 -120 -52
-123 -63 -2 -4 -3 -12 -3 -18 0 -5 -4 -8 -9 -4 -12 7 -3 -45 10 -61 15 -18
-56 -57 -81 -44 -10 5 -28 10 -39 10 -26 0 -27 12 -1 35 18 16 18 19 3 41 -17
27 -36 32 -26 7 5 -13 2 -15 -16 -10 -16 4 -32 -3 -56 -24 -19 -17 -43 -31
-55 -32 -12 -1 -19 -6 -16 -14 3 -7 1 -13 -5 -13 -5 0 -9 -8 -7 -17 3 -19 -28
-25 -49 -9 -7 4 -13 5 -13 1 0 -4 -16 5 -35 19 l-34 27 -41 -37 c-22 -20 -40
-42 -40 -49 0 -8 -8 -16 -18 -18 -9 -3 1 -5 24 -6 41 -1 82 -29 67 -46 -5 -4
-2 -5 5 -1 7 4 24 0 38 -9 13 -9 28 -13 33 -11 5 3 8 -23 8 -58 0 -50 -4 -66
-16 -70 -9 -3 -23 -9 -31 -13 -13 -5 -13 -4 -1 10 7 10 11 18 7 18 -3 1 -9 2
-13 3 -5 1 -14 5 -20 9 -9 6 -13 0 -13 -20 0 -15 -5 -44 -10 -63 -11 -38 -40
-170 -40 -183 0 -5 4 -6 8 -3 13 8 31 -29 21 -45 -5 -8 -9 -24 -9 -36 0 -13
-4 -23 -10 -23 -5 0 -10 5 -10 10 0 6 -12 9 -27 9 -16 -1 -21 -3 -12 -6 10 -2
19 -13 22 -24 3 -12 11 -17 21 -13 9 3 16 1 16 -5 0 -16 -26 -14 -44 4 -9 9
-17 11 -21 5 -3 -5 -3 -11 2 -11 4 -1 -10 -5 -32 -10 -75 -15 -98 -11 -135 24
-30 29 -39 33 -67 27 -42 -10 -83 -2 -109 21 -24 22 -79 17 -88 -8 -5 -12 -9
-13 -20 -4 -8 7 -22 8 -36 3 -21 -8 -208 -249 -249 -322 l-21 -37 39 0 c34 0
46 -8 96 -57 31 -31 61 -56 65 -56 5 0 15 -6 22 -12 8 -7 22 -18 33 -24 27
-15 30 -34 7 -41 -13 -3 -18 -10 -15 -19 3 -9 0 -12 -9 -9 -7 3 -23 -4 -35
-15 -12 -11 -28 -20 -35 -20 -18 -1 -49 -26 -41 -33 3 -4 -1 -7 -10 -7 -11 0
-14 -5 -10 -16 4 -12 0 -14 -18 -10 -13 3 -43 7 -66 10 -44 6 -81 33 -103 75
-28 53 -33 52 -74 -18 -59 -102 -176 -341 -176 -362 0 -10 4 -20 9 -23 13 -8
2 -42 -20 -62 -10 -9 -19 -13 -19 -8 0 5 -7 -2 -16 -14 -15 -21 -15 -25 1 -42
15 -17 15 -19 -2 -29 -10 -6 -14 -11 -9 -11 6 0 -6 -15 -25 -32 -30 -29 -43
-58 -97 -218 -163 -490 -234 -930 -235 -1465 -1 -661 119 -1237 385 -1858 28
-66 57 -121 65 -124 8 -3 12 -12 9 -19 -9 -22 20 -16 52 11 17 14 35 25 41 25
17 0 13 -18 -7 -29 -10 -5 -24 -21 -32 -36 -8 -14 -20 -23 -27 -21 -10 4 -11
1 -5 -12 5 -9 17 -34 27 -54 l17 -37 25 29 c14 17 28 28 33 25 4 -3 13 2 20
10 14 17 30 20 30 6 0 -5 -16 -37 -35 -71 -39 -69 -42 -55 33 -182 24 -43 48
-78 52 -78 4 0 11 8 14 17 5 13 9 14 19 4 9 -9 9 -14 -2 -20 -9 -6 -10 -10 -2
-16 7 -3 9 -15 6 -25 -11 -34 210 -349 398 -567 192 -224 486 -501 701 -661
97 -71 101 -74 106 -51 l6 24 12 -22 c7 -12 11 -27 10 -34 -8 -34 636 -419
702 -419 10 0 23 -6 29 -14 7 -8 47 -29 89 -46 77 -31 148 -61 210 -87 45 -20
329 -113 343 -113 7 0 8 12 4 32 -5 25 -4 29 4 18 10 -13 12 -13 21 0 13 21
13 -5 0 -30 -9 -17 -6 -22 23 -33 61 -26 338 -87 549 -122 l38 -6 -6 33 c-4
25 -3 29 5 18 6 -8 11 -23 11 -32 0 -10 10 -20 23 -22 21 -5 193 -26 210 -26
5 0 6 28 3 63 l-5 62 14 -40 c7 -22 14 -50 14 -62 1 -17 8 -23 34 -27 57 -9
293 -17 299 -10 4 3 3 16 -2 29 -16 41 -22 135 -9 135 8 0 6 7 -4 18 -10 10
-17 26 -17 35 0 14 4 15 24 6 26 -12 40 -62 25 -91 -6 -11 -4 -18 5 -21 17 -7
27 -87 13 -105 -12 -15 85 -16 308 -2 371 24 752 94 1096 201 l95 29 -11 68
c-6 37 -15 76 -19 87 -16 40 -24 70 -24 90 0 11 -3 45 -6 75 -3 30 -8 80 -11
110 -16 149 5 414 33 425 24 9 27 -4 8 -36 -13 -21 -14 -29 -4 -27 14 3 14 0
9 -167 -4 -137 -1 -190 14 -218 12 -23 11 -30 -5 -61 -17 -35 -17 -36 2 -42
16 -5 19 -12 14 -35 -3 -18 -1 -29 5 -29 7 0 9 -9 6 -22 -4 -12 -1 -28 6 -36
6 -8 13 -33 14 -55 1 -22 7 -43 13 -47 7 -4 8 -18 4 -33 -3 -15 -3 -27 0 -27
32 0 429 165 434 181 2 5 12 9 22 9 17 0 19 6 15 53 l-4 52 12 -47 12 -47 75
38 c114 57 123 63 113 70 -12 7 -24 91 -14 91 4 0 13 -20 20 -45 7 -25 15 -45
16 -45 3 0 88 48 178 101 36 21 60 43 63 58 8 27 -12 454 -27 590 -6 52 -12
117 -14 145 -2 28 -6 67 -10 86 -3 19 -7 65 -9 101 -2 37 -7 72 -11 78 -4 7
-9 27 -11 44 -3 18 -9 43 -14 57 -5 14 -14 57 -20 95 -12 76 -13 78 -61 235
-58 187 -70 225 -80 234 -5 6 -9 17 -9 25 0 9 -12 39 -25 66 -14 28 -25 56
-25 63 0 7 -6 15 -14 18 -8 3 -12 13 -9 24 3 10 0 21 -6 24 -6 4 -11 14 -11
23 0 15 -25 76 -49 123 -5 9 -29 17 -62 21 -54 6 -109 23 -109 35 0 3 7 4 15
0 8 -3 25 -1 37 4 13 5 17 9 11 9 -18 1 -16 21 2 21 8 0 15 -8 15 -18 0 -11
12 -21 35 -28 43 -13 43 -11 12 81 -26 76 -45 96 -39 40 4 -31 2 -35 -20 -35
-35 0 -78 45 -78 82 0 27 2 29 16 17 13 -10 17 -10 25 2 7 11 9 10 10 -6 0
-15 3 -13 11 9 l11 29 13 -24 c13 -23 13 -23 14 -2 0 12 -14 32 -32 48 -18 14
-41 33 -51 41 -10 9 -16 22 -13 30 3 9 -1 28 -9 43 -7 15 -14 37 -14 47 -1 37
-7 60 -24 84 -9 14 -17 39 -17 56 0 19 -6 34 -15 38 -8 3 -15 12 -15 19 0 8
-8 29 -17 48 -10 19 -16 44 -14 57 1 12 -4 25 -12 28 -8 3 -17 22 -21 42 -3
20 -18 60 -33 89 -16 29 -43 81 -61 115 -19 35 -48 77 -65 94 -18 18 -63 71
-102 118 -38 47 -72 86 -76 86 -3 0 -27 21 -53 46 -27 25 -51 42 -56 38 -4 -5
-13 -38 -19 -74 -7 -36 -19 -96 -26 -135 -42 -209 -46 -247 -30 -320 8 -39 19
-84 24 -102 5 -17 7 -34 5 -36 -3 -3 -7 -27 -9 -53 -3 -39 -10 -54 -32 -73
-15 -13 -22 -20 -14 -16 11 6 12 2 6 -21 -4 -16 -6 -93 -6 -171 2 -146 -7
-193 -44 -229 -8 -9 -15 -21 -15 -28 0 -19 -69 -53 -135 -66 -33 -6 -87 -18
-120 -27 -43 -10 -92 -13 -175 -10 -168 8 -152 3 -135 38 9 16 11 29 6 29 -17
0 -22 34 -7 46 23 16 20 26 -16 56 -18 15 -27 28 -20 28 6 0 12 -4 12 -10 0
-5 5 -10 11 -10 6 0 8 9 4 20 -4 11 -2 20 4 20 6 0 11 7 11 15 0 8 -7 15 -15
15 -20 0 -19 20 3 36 10 9 13 17 7 21 -19 15 -35 52 -25 58 6 3 10 -1 10 -9 0
-19 16 -21 22 -3 8 21 -2 36 -20 30 -15 -6 -15 -5 -2 11 8 11 16 14 18 7 5
-16 22 -13 22 4 0 8 7 15 15 15 8 0 15 5 15 11 0 5 5 7 10 4 14 -9 30 3 24 19
-3 7 -16 14 -30 15 -50 3 -54 5 -54 23 0 14 -6 18 -21 16 -15 -2 -24 4 -30 19
-7 20 -4 24 19 29 45 9 52 13 52 23 0 6 -7 8 -15 5 -20 -8 -20 20 1 36 8 8 14
9 12 4 -2 -5 2 -10 7 -12 6 -1 10 4 10 11 0 12 34 51 48 53 4 1 10 2 13 3 4 0
1 7 -5 15 -10 11 -8 16 8 21 15 5 19 13 16 35 -2 16 -6 33 -8 37 -7 11 14 38
35 46 11 4 18 0 21 -11 4 -13 5 -12 6 4 1 23 26 38 44 27 6 -4 8 0 4 10 -4 11
-1 17 8 17 8 0 21 9 29 21 8 12 19 18 26 14 8 -5 10 -2 6 11 -4 15 3 23 34 38
45 21 72 56 74 95 0 14 9 34 18 43 10 10 21 30 24 45 4 16 18 39 31 52 12 13
23 31 23 41 0 9 11 22 25 28 14 6 25 18 25 27 0 8 4 15 9 15 5 0 20 17 32 37
32 51 35 60 16 44 -15 -12 -17 -11 -17 3 0 9 -3 16 -8 16 -10 0 -73 -58 -72
-67 0 -4 -6 -8 -13 -8 -20 -1 -67 -36 -67 -51 0 -8 -6 -11 -15 -8 -15 6 -135
-81 -135 -99 0 -5 -7 -4 -15 3 -10 9 -15 9 -15 1 0 -6 -8 -11 -17 -11 -16 0
-16 -2 -3 -10 20 -14 -45 -7 -83 9 -37 15 -46 14 -54 -5 -4 -11 -14 -13 -37
-9 -24 5 -28 4 -16 -5 12 -9 10 -10 -10 -4 -14 3 -30 11 -37 16 -7 5 -18 6
-25 2 -21 -13 -41 -14 -56 -2 -9 8 -16 8 -20 1 -11 -16 -78 -23 -118 -11 -23
6 -39 6 -43 0 -7 -12 -51 3 -51 18 0 5 -4 10 -10 10 -5 0 -9 -3 -9 -7 3 -19
-2 -25 -13 -16 -7 6 -22 13 -32 17 -16 5 -17 4 -6 -9 9 -11 9 -15 1 -15 -11 0
-23 8 -58 40 -9 8 -17 13 -17 11 -2 -9 -33 15 -39 29 -4 12 -6 11 -6 -3 -1
-13 -6 -17 -20 -12 -13 4 -26 -2 -39 -15 l-20 -21 -15 22 c-11 15 -27 23 -51
23 -37 2 -86 38 -86 63 0 10 -7 12 -20 8 -11 -4 -20 -2 -20 4 0 6 -6 11 -13
11 -7 0 -18 9 -25 20 -7 11 -23 20 -36 20 -29 0 -65 41 -73 83 -4 22 -10 27
-24 24 -10 -3 -18 -2 -18 2 3 22 -16 51 -33 51 -10 0 -16 5 -13 10 4 7 13 6
26 -1 26 -13 36 -5 19 16 -7 9 -20 13 -28 10 -22 -8 -44 14 -36 39 6 18 5 19
-10 7 -14 -12 -16 -11 -16 3 0 9 -8 16 -19 16 -11 0 -28 13 -37 30 -10 16 -24
32 -31 35 -8 2 -12 1 -9 -4 3 -5 -4 -16 -17 -24 -22 -14 -24 -13 -36 14 -9 20
-20 29 -37 29 -15 0 -24 6 -24 16 0 14 -3 14 -15 4 -12 -10 -15 -9 -15 4 0 10
-5 14 -11 10 -6 -3 -14 -2 -18 3 -3 6 -24 13 -46 16 l-40 7 28 -18 c15 -10 24
-21 21 -25 -7 -6 -66 22 -72 34 -2 4 -12 4 -23 2 -23 -6 -21 -32 7 -87 8 -16
14 -39 14 -52 0 -12 3 -30 6 -39 6 -13 9 -14 16 -3 5 8 6 3 2 -14 -4 -18 -2
-28 5 -28 6 0 11 -9 11 -21 0 -11 8 -33 19 -47 10 -15 21 -44 25 -65 4 -21 14
-41 22 -44 8 -3 13 -11 10 -18 -2 -7 7 -24 20 -38 26 -28 30 -43 13 -49 -13
-4 9 -58 24 -58 5 0 6 -7 3 -16 -3 -8 0 -25 8 -37 7 -12 16 -38 20 -57 6 -36
36 -103 48 -108 4 -2 4 -10 1 -19 -5 -12 -3 -14 7 -8 8 5 11 3 8 -6 -3 -8 6
-27 21 -42 l26 -28 -24 -18 -24 -18 24 -34 c26 -38 39 -53 86 -107 18 -20 33
-41 33 -45 0 -5 4 -5 10 -2 6 3 10 1 10 -4 0 -6 7 -11 16 -11 10 0 14 -6 10
-15 -3 -8 -1 -15 4 -15 6 0 10 5 10 11 0 5 5 7 11 4 6 -4 8 -9 5 -12 -10 -10
19 -30 36 -25 10 2 18 0 18 -5 0 -5 15 -14 33 -21 19 -7 40 -23 47 -37 7 -14
20 -25 28 -25 8 0 12 -6 8 -15 -3 -8 -1 -15 4 -15 6 0 10 4 10 8 0 10 92 7
127 -4 12 -3 24 -12 27 -20 3 -8 12 -11 21 -8 11 4 14 2 10 -9 -4 -8 1 -17 10
-21 11 -4 15 -12 11 -22 -3 -8 0 -22 8 -29 17 -17 30 -7 15 12 -16 18 -1 17
17 -2 9 -8 11 -15 5 -15 -20 0 -12 -18 29 -65 36 -42 53 -74 31 -61 -12 8 0
-48 13 -56 6 -4 11 -13 11 -20 1 -7 6 -12 13 -11 7 2 12 -2 12 -7 0 -6 7 -10
16 -10 14 0 14 -3 4 -15 -7 -8 -20 -15 -29 -15 -13 -1 -12 -3 3 -12 15 -8 21
-8 24 0 2 7 8 12 13 12 6 0 8 -4 4 -9 -6 -11 61 -35 75 -26 5 3 10 1 10 -5 0
-8 9 -10 25 -6 16 4 34 1 48 -9 15 -11 17 -15 6 -15 -8 0 -20 5 -26 11 -8 8
-17 7 -34 -1 -23 -13 -82 -7 -214 22 -49 11 -237 67 -243 73 -2 2 2 12 9 23
11 17 10 24 -3 39 -8 10 -21 35 -28 56 -7 22 -18 51 -26 65 -8 15 -14 34 -14
42 0 12 -2 12 -9 2 -6 -10 -13 -2 -25 27 -11 28 -22 41 -35 41 -21 0 -81 46
-81 61 0 6 4 8 9 5 12 -8 41 3 41 15 0 6 -8 6 -19 0 -14 -8 -23 -5 -40 10 -11
11 -21 27 -21 35 0 11 -6 13 -21 9 -15 -5 -19 -4 -15 4 4 6 15 11 24 11 15 1
15 2 1 10 -9 5 -26 8 -37 5 -11 -2 -26 3 -33 11 -17 21 -38 18 -32 -6 3 -11
13 -20 23 -20 9 0 22 -11 28 -25 6 -14 16 -25 22 -25 5 0 10 -7 10 -15 0 -9
10 -15 28 -16 l27 -1 -30 -9 c-16 -5 -37 -6 -45 -2 -8 4 -22 7 -30 8 -9 0 -15
10 -14 24 1 24 -23 61 -39 61 -5 0 -7 -7 -4 -14 4 -10 1 -13 -9 -9 -7 3 -14
10 -14 15 0 5 -6 8 -12 5 -7 -2 -23 7 -36 20 -12 13 -27 21 -32 18 -6 -3 -10
1 -10 10 0 9 -4 13 -10 10 -10 -6 -14 7 -11 33 1 6 -2 12 -8 12 -5 0 -23 14
-39 30 -17 17 -27 30 -22 30 4 0 6 9 3 20 -5 20 -14 24 -41 21 -8 -1 -12 5
-10 16 1 11 -5 32 -15 47 -11 16 -17 40 -15 58 2 19 -2 33 -9 35 -8 3 -13 -4
-13 -15 0 -11 -3 -29 -7 -39 -6 -14 -9 -11 -13 15 -6 39 -54 77 -69 54 -7 -11
-9 -11 -14 1 -3 9 1 18 9 21 8 3 14 11 14 18 0 11 -2 11 -8 0 -7 -10 -12 -8
-25 5 -15 17 -17 22 -17 41 0 5 -11 14 -24 22 -16 8 -22 18 -19 29 4 9 3 13
-2 9 -9 -9 -67 101 -59 113 3 5 -3 6 -13 3 -16 -6 -16 -5 1 8 26 20 62 200 78
387 11 133 11 144 -5 156 -16 12 -16 13 -1 19 14 5 15 17 10 74 -3 37 -6 70
-6 74 0 4 -6 5 -14 2 -19 -7 -162 68 -186 99 -11 13 -31 28 -45 31 -18 5 -27
15 -32 36 -3 16 -11 35 -19 41 -9 7 -10 16 -4 30 6 10 15 28 20 39 6 11 10 27
10 35 0 8 4 15 8 15 5 0 13 15 18 34 l9 35 40 -15 c48 -17 131 -10 139 12 8
22 -20 28 -74 16 -44 -10 -53 -9 -107 17 -32 16 -64 40 -72 53 -15 23 -105
276 -120 333 -4 17 -13 39 -18 50 -6 11 -14 43 -18 70 -4 28 -11 55 -15 60 -5
6 -11 27 -15 48 -4 20 -11 37 -15 37 -12 0 -19 -39 -8 -42 5 -2 7 -15 3 -30
-5 -18 -12 -25 -21 -21 -10 3 -12 0 -8 -10 6 -16 -30 -47 -55 -47 -20 0 -2 17
24 23 17 4 17 5 -4 6 -21 1 -22 3 -10 18 13 15 10 16 -28 10 -23 -4 -47 -8
-55 -10 -7 -2 -10 -2 -5 0 13 8 8 23 -8 23 -8 0 -15 5 -15 11 0 13 -38 49 -52
49 -4 0 -8 14 -8 30 0 17 -4 30 -8 30 -4 0 -6 15 -4 34 3 27 10 36 29 41 14 3
34 14 45 25 12 11 25 17 30 14 5 -3 16 0 25 8 9 7 14 9 11 3 -3 -6 6 -10 22
-11 27 -1 28 0 18 25 -16 38 -16 258 0 303 17 47 74 105 112 113 52 11 87 0
190 -64 24 -15 24 -15 10 3 -24 30 -16 343 11 456 32 133 37 156 69 310 74
347 93 408 162 499 38 50 68 81 193 196 39 35 189 151 250 192 73 49 160 88
285 130 281 93 507 123 666 88 206 -45 489 -154 619 -239 208 -137 424 -326
497 -437 22 -32 58 -115 85 -195 31 -89 49 -131 51 -115 3 20 7 22 35 16 18
-4 38 -7 44 -8 7 0 11 -3 8 -5 -3 -3 0 -11 6 -18 7 -9 7 -25 -1 -54 -9 -32
-18 -45 -39 -53 l-28 -10 23 -116 c13 -64 32 -159 43 -211 26 -121 38 -369 21
-411 -16 -38 -6 -49 21 -21 27 29 83 52 129 52 76 0 120 -66 122 -181 1 -53 4
-68 12 -57 6 8 24 18 41 22 27 7 28 9 13 20 -14 10 -9 12 30 9 71 -4 99 4 106
33 4 14 11 22 15 19 5 -3 20 9 34 26 23 29 47 33 47 8 0 -6 -5 -7 -11 -4 -6 4
-5 -2 3 -14 7 -12 19 -21 27 -21 11 0 11 3 0 17 -12 14 -12 16 1 11 8 -3 15
-13 15 -24 0 -10 4 -25 8 -31 5 -7 5 -18 1 -24 -4 -7 1 -7 16 1 20 11 22 10
17 -4 -4 -9 -2 -16 3 -16 5 0 21 -11 36 -25 21 -19 30 -22 40 -14 11 9 14 8
14 -6 0 -16 2 -16 25 -1 17 11 25 13 25 5 0 -7 3 -9 7 -6 3 4 11 0 17 -8 6 -9
26 -16 44 -18 22 -1 31 -6 27 -15 -3 -7 -1 -11 4 -8 5 3 22 -1 37 -9 16 -8 36
-15 45 -15 9 0 19 -7 23 -15 3 -10 19 -15 42 -15 28 0 35 -3 30 -15 -3 -8 -1
-15 5 -15 5 0 12 6 15 14 3 8 16 17 30 20 13 4 24 11 24 17 0 6 -5 7 -10 4 -7
-4 -9 3 -5 22 5 21 4 24 -4 13 -7 -9 -11 -10 -11 -3 0 6 4 14 9 17 5 3 12 18
15 33 8 33 47 116 57 123 4 3 7 12 7 20 -3 40 3 60 17 60 13 0 14 4 5 20 -12
22 -1 27 19 8 11 -11 13 -9 8 10 -3 15 -1 22 9 22 8 0 14 6 14 13 0 8 4 7 10
-3 6 -10 10 -11 10 -2 0 6 7 12 16 12 8 0 12 -4 9 -10 -3 -5 -1 -10 4 -10 6 0
11 5 11 12 0 6 8 1 19 -10 10 -12 21 -19 24 -16 9 9 37 -22 37 -41 0 -11 5
-15 16 -11 8 3 12 2 9 -4 -3 -6 -1 -10 5 -10 7 0 9 -8 5 -20 -3 -11 -2 -20 3
-20 5 0 12 -9 15 -20 3 -11 13 -20 22 -20 9 0 14 4 11 9 -11 18 27 21 40 4 8
-10 14 -13 13 -8 -4 31 1 38 18 24 13 -11 17 -11 20 -1 6 17 33 15 33 -2 0 -8
-6 -16 -12 -19 -7 -2 -5 -3 4 -2 23 4 35 -15 17 -26 -10 -6 -6 -9 14 -9 26 0
34 -9 20 -24 -4 -4 -8 -13 -9 -19 0 -7 -2 -20 -2 -29 -1 -10 -8 -17 -14 -15
-7 1 -12 -6 -12 -16 1 -12 -2 -15 -10 -8 -7 6 -18 4 -30 -5 -26 -18 -37 -18
-30 1 4 10 2 13 -8 10 -8 -3 -27 1 -43 9 -21 11 -33 12 -42 5 -6 -6 -16 -8
-20 -6 -5 3 -9 -2 -10 -11 -6 -54 -17 -81 -35 -85 -11 -3 -22 -15 -25 -26 -3
-12 -10 -21 -15 -21 -19 0 3 -19 30 -24 32 -8 79 -70 74 -99 -2 -12 1 -17 7
-13 14 9 14 0 -1 -41 -7 -18 -18 -33 -26 -33 -7 0 -12 -8 -11 -17 3 -31 -1
-36 -16 -23 -13 10 -15 9 -15 -9 0 -23 -18 -29 -26 -8 -6 16 -44 19 -61 5 -8
-6 -11 -19 -8 -29 3 -9 1 -20 -5 -24 -13 -8 -88 30 -112 57 -12 14 -25 19 -43
16 -17 -4 -25 -1 -25 9 0 11 -5 10 -24 -3 -18 -11 -30 -13 -42 -6 -21 12 -54
4 -54 -14 0 -20 -21 -28 -31 -13 -7 12 -9 12 -9 0 0 -8 -6 -11 -17 -7 -15 5
-14 3 2 -10 19 -16 19 -16 -10 -9 -55 14 -96 14 -136 1 -35 -12 -39 -12 -37 2
2 8 -3 17 -9 19 -7 3 -13 0 -13 -7 0 -6 -4 -8 -10 -5 -5 3 -10 1 -10 -5 0 -7
-6 -5 -15 4 -8 8 -15 24 -15 34 0 11 -6 23 -12 26 -10 5 -10 7 0 12 6 3 10 10
6 15 -3 5 4 9 15 9 11 0 22 4 26 10 3 5 12 7 20 3 8 -3 15 0 15 6 0 6 6 11 14
11 7 0 16 9 19 20 4 16 -1 22 -26 28 -21 6 -35 5 -39 -2 -5 -6 -8 -1 -8 12 0
15 -6 22 -19 22 -12 0 -18 7 -17 18 0 10 -6 17 -16 17 -9 0 -20 4 -24 8 -4 4
-14 1 -22 -6 -13 -11 -14 -9 -1 10 7 12 10 26 6 30 -5 4 -12 1 -17 -7 -7 -11
-12 -11 -23 -2 -7 7 -17 9 -21 5 -4 -4 -4 0 -1 8 5 13 -2 16 -44 15 -28 0 -51
-4 -51 -8 0 -5 -7 -8 -15 -8 -8 0 -15 5 -15 11 0 8 -4 9 -13 0 -8 -6 -17 -8
-20 -4 -4 3 -7 -2 -8 -13 0 -11 -3 -14 -6 -6 -4 10 -8 10 -18 2 -11 -9 -19 -7
-36 9 -17 16 -26 18 -36 9 -10 -8 -18 -7 -31 6 -10 9 -23 16 -28 16 -17 0 -94
-196 -94 -240 0 -68 -35 -275 -61 -365 -5 -16 -20 -69 -34 -117 -23 -78 -29
-90 -73 -125 -26 -22 -54 -42 -63 -46 -13 -4 -18 -28 -24 -122 -7 -109 -2
-157 12 -107 3 12 10 22 15 22 5 0 7 -3 5 -8 -3 -4 6 -21 19 -37 17 -21 24
-25 24 -14 0 24 37 30 76 14 33 -13 35 -17 50 -92 2 -12 -1 -25 -7 -28 -6 -4
-8 -18 -4 -32 4 -16 2 -22 -5 -18 -11 7 -80 -15 -80 -25 0 -3 -16 -4 -35 -2
-22 3 -35 0 -35 -7 0 -7 -5 -9 -10 -6 -6 4 -8 11 -5 16 4 5 -1 16 -9 25 -12
12 -16 12 -16 2 0 -7 -9 -2 -20 12 l-19 25 -30 -70 c-17 -39 -44 -96 -61 -127
-17 -33 -27 -65 -24 -75 4 -12 3 -14 -3 -6 -13 18 -133 -143 -133 -177 0 -17
21 -46 68 -95 105 -110 185 -204 233 -275 24 -36 46 -67 50 -70 10 -7 99 -187
99 -200 0 -5 5 -10 10 -10 6 0 10 -7 10 -15 0 -8 5 -15 10 -15 6 0 10 -8 10
-18 0 -10 3 -22 7 -26 4 -3 8 -17 10 -29 2 -12 14 -30 26 -40 34 -27 200 -105
241 -112 20 -4 47 -16 60 -26 13 -11 31 -19 40 -19 20 0 164 -48 196 -66 14
-7 41 -20 60 -28 19 -9 53 -27 74 -42 l39 -26 -8 23 c-5 13 -8 50 -8 81 1 57
15 88 65 142 10 11 18 29 18 41 0 12 9 31 20 43 12 12 16 22 11 22 -5 0 -22
11 -38 24 -16 14 -43 28 -59 32 -57 13 -104 90 -104 170 0 59 34 108 94 135
61 28 81 26 235 -18 34 -9 65 -26 83 -46 28 -30 30 -35 25 -99 -3 -37 -11 -77
-17 -88 -15 -27 -4 -62 11 -40 8 12 12 12 16 2 6 -16 30 14 72 95 28 53 41 66
92 93 61 32 121 40 184 22 34 -9 75 -77 75 -124 0 -27 2 -28 49 -28 28 0 53 5
56 10 4 6 1 35 -5 65 -10 48 -9 60 7 93 27 55 88 83 167 76 67 -6 85 -14 136
-56 57 -47 59 -48 70 -48 6 0 8 -5 5 -10 -3 -6 5 -14 18 -19 13 -5 30 -23 37
-40 8 -19 20 -31 31 -31 11 0 19 -7 19 -15 0 -8 -5 -15 -11 -15 -8 0 -9 -4 0
-13 6 -8 8 -16 5 -20 -3 -3 -8 -24 -10 -47 -3 -31 -11 -49 -31 -66 l-27 -23
31 1 c16 1 35 -2 42 -6 6 -4 37 7 68 24 49 27 63 31 102 25 25 -4 58 -13 72
-21 33 -17 61 -75 63 -131 0 -23 4 -43 8 -43 4 0 18 15 30 34 25 39 94 76 139
76 16 0 45 -6 63 -14 l34 -14 21 76 c34 127 79 348 100 497 64 446 60 952 -10
1385 -46 286 -119 582 -150 613 -21 20 -25 32 -8 21 8 -4 9 3 4 27 -14 64 -33
104 -46 100 -30 -8 -86 -3 -109 9 -50 27 -87 99 -74 143 5 17 7 17 18 2 11
-15 13 -15 25 -1 15 18 51 22 51 5 0 -6 9 -9 20 -6 11 3 20 0 20 -6 0 -6 3 -8
6 -5 9 10 -74 213 -161 393 -131 271 -275 511 -443 738 -49 65 -70 86 -83 82
-9 -3 -20 -1 -23 4 -4 6 -14 7 -24 4 -14 -5 -15 -4 -6 8 9 11 5 20 -16 40 -15
14 -32 23 -38 21 -7 -2 -12 1 -12 7 0 6 4 11 10 11 17 0 3 60 -21 88 -35 40
-62 61 -71 56 -4 -3 -8 2 -8 11 0 9 -4 14 -9 11 -14 -9 -41 4 -41 19 0 14 -28
29 -47 26 -7 -1 -29 6 -50 15 -21 10 -40 18 -43 19 -37 11 -80 37 -78 47 3 18
-21 60 -31 53 -16 -9 -19 48 -4 63 11 11 11 17 3 22 -9 6 -7 11 6 19 22 12 39
-5 -152 160 -270 235 -587 443 -939 616 -619 304 -1211 451 -1945 480 -85 4
-158 4 -160 1z m203 -357 c4 -15 2 -19 -8 -15 -8 3 -17 1 -20 -4 -8 -13 -25
-13 -25 0 0 6 7 10 15 10 9 0 18 7 21 15 8 20 11 19 17 -6z m-83 -79 c0 -5 -7
-10 -15 -10 -8 0 -15 5 -15 10 0 6 7 10 15 10 8 0 15 -4 15 -10z m-698 -565
c3 -14 1 -25 -3 -25 -5 0 -9 4 -9 9 0 5 -3 16 -6 25 -3 9 -2 16 4 16 5 0 12
-11 14 -25z m-1921 -18 c-10 -9 -11 -8 -5 6 3 10 9 15 12 12 3 -3 0 -11 -7
-18z m4679 -137 c0 -6 7 -10 15 -10 41 0 76 -71 46 -93 -10 -6 -17 -20 -15
-29 1 -10 -1 -18 -6 -18 -9 0 -23 -39 -21 -57 1 -7 -7 -13 -17 -13 -10 0 -32
-11 -48 -25 -18 -16 -36 -23 -47 -19 -11 3 -29 7 -41 8 -31 4 -46 14 -46 32 0
8 -4 12 -10 9 -6 -4 -10 5 -10 20 0 14 -4 24 -9 21 -5 -3 -14 1 -21 9 -10 12
-10 15 0 15 9 0 7 7 -5 20 -11 13 -14 20 -6 20 8 0 10 7 6 19 -5 17 4 25 52
47 32 15 60 31 61 36 2 4 10 8 18 8 8 0 14 5 14 11 0 6 8 8 19 4 11 -3 22 -1
26 5 7 12 45 -5 45 -20z m160 -19 c3 -1 -2 -6 -10 -11 -12 -8 -11 -10 8 -10
18 0 22 -6 22 -30 0 -31 -3 -33 -54 -45 -24 -5 -27 -4 -19 7 13 16 15 78 2 78
-5 0 -9 4 -9 9 0 8 34 9 60 2z m588 -2 c-2 -7 18 -12 54 -12 31 -1 54 -5 52
-8 -2 -4 0 -9 5 -11 14 -4 -11 -78 -26 -78 -7 0 -13 -4 -13 -10 0 -11 -53 -40
-75 -40 -8 0 -15 7 -15 15 0 8 -4 15 -10 15 -5 0 -10 -4 -10 -10 0 -19 -16
-10 -33 19 -9 16 -17 39 -17 51 0 13 -4 19 -11 14 -7 -4 -10 -1 -7 7 5 14 9
15 53 18 16 1 17 3 5 11 -12 7 -10 11 10 19 33 13 40 13 38 0z m-4478 -9 c8
13 10 12 10 -2 0 -19 -8 -22 -34 -12 -9 3 -13 11 -10 16 4 6 10 5 15 -3 8 -12
11 -11 19 1z m75 0 c7 -12 -2 -12 -30 0 -19 8 -19 9 2 9 12 1 25 -3 28 -9z
m22 -30 c2 -17 -1 -18 -18 -7 -18 11 -18 12 -1 19 9 3 17 7 17 7 1 1 1 -8 2
-19z m-89 -2 c7 -1 11 -7 8 -15 -3 -8 4 -15 20 -19 38 -10 47 -36 28 -83 -15
-38 -37 -57 -54 -46 -5 3 -11 1 -15 -5 -3 -5 0 -10 7 -10 8 -1 6 -6 -6 -15
-11 -8 -16 -15 -10 -15 5 0 3 -4 -5 -9 -7 -5 -26 -4 -43 3 -26 10 -32 8 -48
-12 -10 -12 -20 -27 -22 -33 -4 -13 -78 -22 -78 -10 0 5 -9 19 -21 32 -11 13
-23 36 -26 51 -3 16 -9 28 -13 28 -9 0 -40 62 -40 78 0 6 13 25 29 42 19 22
31 28 36 20 5 -8 11 -8 17 -2 7 7 20 7 38 0 20 -7 35 -6 51 3 39 21 73 28 104
23 17 -2 36 -5 43 -6z m52 -12 c0 -3 -4 -8 -10 -11 -5 -3 -10 -1 -10 4 0 6 5
11 10 11 6 0 10 -2 10 -4z m-1190 -46 c0 -5 -4 -10 -10 -10 -5 0 -10 5 -10 10
0 6 5 10 10 10 6 0 10 -4 10 -10z m5763 -26 c-10 -19 -19 -31 -21 -25 -3 9 26
61 34 61 2 0 -4 -16 -13 -36z m-256 4 c-3 -8 -6 -5 -6 6 -1 11 2 17 5 13 3 -3
4 -12 1 -19z m333 -2 c0 -3 -4 -8 -10 -11 -5 -3 -10 -1 -10 4 0 6 5 11 10 11
6 0 10 -2 10 -4z m-3997 -52 c-7 -3 -9 -12 -6 -20 3 -8 -1 -14 -10 -14 -8 0
-17 9 -20 20 -4 16 0 20 21 19 15 0 22 -3 15 -5z m-1889 -49 c-5 -19 -4 -19 9
-2 17 21 27 22 27 2 0 -8 5 -15 10 -15 6 0 10 3 10 8 0 4 15 7 33 7 17 1 57 5
88 9 44 6 59 5 70 -7 8 -8 24 -17 36 -21 23 -7 36 -37 33 -74 -1 -13 4 -45 11
-72 10 -40 10 -55 0 -77 -7 -15 -13 -29 -12 -30 0 -1 -6 -15 -14 -30 -8 -14
-12 -30 -9 -35 10 -15 109 -74 136 -81 56 -14 124 -67 87 -67 -8 0 -8 -5 1
-15 10 -12 10 -15 -1 -16 -8 0 -4 -4 9 -9 12 -5 22 -16 22 -25 0 -8 6 -15 14
-15 21 0 24 -21 7 -43 -54 -65 -96 -94 -104 -74 -3 7 -6 5 -6 -4 -1 -10 -19
-24 -43 -34 -24 -9 -46 -22 -50 -28 -6 -9 -8 -8 -8 2 0 14 -28 40 -44 41 -5 0
-2 -7 5 -16 11 -14 10 -16 -11 -13 -14 1 -38 -2 -55 -6 -33 -10 -50 -9 -108 6
-21 6 -35 14 -31 20 3 5 0 16 -6 24 -16 20 -24 179 -11 217 9 26 8 33 -6 44
-10 7 -22 10 -27 6 -5 -3 -7 2 -3 10 3 9 -2 23 -13 33 -11 10 -17 22 -13 28 4
6 0 8 -11 4 -12 -5 -16 -3 -13 5 2 7 -4 27 -14 45 -10 17 -15 34 -11 38 4 4 8
36 8 71 2 61 0 66 -22 75 -14 5 -29 8 -33 6 -5 -1 -9 2 -10 8 0 5 5 10 12 11
6 0 20 2 30 2 12 2 17 11 17 36 0 19 -5 36 -11 38 -7 2 -7 12 1 33 9 23 13 26
20 15 5 -8 7 -24 4 -35z m1846 5 c0 -5 -4 -10 -10 -10 -5 0 -10 5 -10 10 0 6
5 10 10 10 6 0 10 -4 10 -10z m-1900 -70 c0 -5 -4 -10 -10 -10 -5 0 -10 5 -10
10 0 6 5 10 10 10 6 0 10 -4 10 -10z m4920 -38 c14 9 23 8 42 -4 15 -10 44
-16 74 -15 89 1 228 -35 266 -70 10 -9 18 -12 18 -8 0 4 11 -7 23 -26 16 -23
21 -38 14 -46 -5 -7 -7 -19 -4 -27 3 -8 -1 -29 -10 -47 -12 -24 -13 -33 -3
-39 9 -5 9 -9 1 -14 -6 -4 -9 -12 -6 -17 4 -5 -4 -9 -17 -9 -13 0 -33 -3 -46
-6 -18 -5 -20 -9 -11 -20 13 -16 -2 -19 -17 -4 -7 7 -9 -2 -6 -25 2 -19 10
-35 16 -35 14 0 31 -31 40 -73 5 -20 2 -29 -9 -33 -11 -5 -13 -10 -5 -19 12
-14 4 -41 -18 -67 -12 -14 -12 -18 -2 -18 31 0 -8 -20 -55 -29 -36 -7 -54 -6
-64 2 -12 10 -14 9 -8 -5 10 -26 -42 -19 -59 8 -10 15 -22 20 -39 16 -23 -4
-25 -1 -25 32 0 21 -4 35 -9 31 -6 -3 -15 3 -21 14 -6 12 -16 18 -25 15 -11
-5 -15 1 -15 19 0 14 -5 29 -11 33 -6 3 -8 17 -4 31 7 29 -11 51 -66 77 -52
25 -97 68 -105 101 -4 17 -10 35 -15 40 -8 11 -7 21 6 70 9 33 45 96 45 80 1
-5 10 7 21 27 10 21 29 42 40 49 17 9 20 8 14 -3 -4 -7 1 -5 11 5 10 10 20 13
22 8 2 -7 10 -6 22 1z m1142 -178 c17 -9 30 -26 33 -42 4 -15 11 -35 16 -45 8
-15 6 -17 -16 -11 -20 5 -74 -8 -93 -22 -2 -1 2 -12 8 -24 11 -20 10 -21 -10
-10 -12 6 -24 9 -28 6 -3 -3 0 -6 6 -6 7 0 12 -7 12 -15 0 -8 -7 -15 -15 -15
-9 0 -18 -6 -21 -14 -4 -11 -16 -13 -41 -9 -35 6 -36 6 -31 -26 l5 -31 -29 27
c-19 18 -28 36 -27 53 1 14 -1 32 -5 41 -4 8 -2 27 3 41 5 14 8 28 6 30 -3 2
13 22 35 43 56 54 122 64 192 29z m-6265 -86 c-3 -8 -6 -5 -6 6 -1 11 2 17 5
13 3 -3 4 -12 1 -19z m-22 -68 c-3 -5 -14 -10 -23 -9 -14 0 -13 2 3 9 27 11
27 11 20 0z m4709 -185 c-4 -8 -11 -15 -16 -15 -6 0 -5 6 2 15 7 8 14 15 16
15 2 0 1 -7 -2 -15z m-4614 -86 c23 -6 59 -82 53 -113 -5 -24 -3 -26 31 -26
25 0 36 -4 36 -15 0 -16 30 -10 42 9 3 5 14 11 23 12 9 1 27 10 40 18 46 30
194 -5 180 -42 -2 -7 0 -10 5 -7 6 3 10 -5 10 -19 0 -14 5 -26 11 -26 8 0 8
-4 2 -12 -12 -15 -13 -78 -2 -78 3 0 9 10 12 21 4 16 12 20 30 17 21 -4 24 -2
21 25 -3 24 -1 27 9 18 8 -6 17 -8 20 -4 12 11 8 23 -8 23 -15 0 -20 16 -17
53 1 10 -5 17 -16 17 -14 0 -15 2 -2 10 9 5 16 6 18 0 2 -5 18 -6 35 -3 28 4
34 0 50 -25 9 -17 17 -44 17 -60 0 -23 5 -31 25 -36 14 -4 25 -11 25 -17 0 -6
5 -7 10 -4 6 4 17 2 24 -4 19 -16 103 -24 111 -11 3 5 0 13 -8 16 -12 4 -12
10 -3 29 10 23 16 24 84 22 l72 -2 16 -47 c8 -26 13 -56 9 -67 -12 -40 -14
-61 -4 -67 6 -3 13 3 16 15 6 23 22 29 24 9 0 -7 7 2 15 21 18 40 40 64 53 57
5 -3 12 -26 15 -51 5 -30 12 -45 22 -45 11 0 13 -6 9 -21 -5 -16 -4 -19 6 -14
9 6 11 3 6 -8 -3 -10 -2 -17 4 -17 6 0 8 -4 5 -9 -3 -5 -14 -7 -25 -4 -11 3
-21 -2 -24 -11 -9 -24 -33 -19 -62 12 -15 15 -25 20 -23 12 2 -8 -4 -15 -12
-15 -8 0 -18 -7 -22 -15 -5 -11 -7 -9 -7 8 -1 12 4 22 10 22 5 0 7 5 4 10 -9
15 -35 -14 -35 -39 0 -12 -6 -21 -15 -21 -24 0 -17 -20 8 -21 16 -1 18 -2 5
-6 -10 -2 -18 -9 -18 -14 0 -6 -6 -7 -16 -1 -19 10 -54 -13 -54 -35 0 -7 -4
-13 -10 -13 -5 0 -10 -5 -10 -11 0 -18 -27 -39 -50 -39 -23 0 -59 -35 -60 -58
0 -7 -13 -15 -29 -18 -16 -4 -39 -15 -50 -25 -11 -11 -26 -19 -33 -19 -10 0
-10 -2 1 -9 21 -13 5 -43 -21 -39 -23 3 -44 53 -27 64 5 3 9 10 9 17 0 8 -3 8
-12 -1 -7 -7 -20 -12 -30 -12 -10 0 -18 -5 -18 -11 0 -6 7 -9 15 -5 8 3 15 1
15 -4 0 -6 -4 -10 -10 -10 -16 0 -12 -40 5 -46 22 -9 18 -26 -4 -19 -11 3 -22
1 -26 -5 -3 -5 1 -10 9 -10 9 0 14 -8 13 -20 -1 -15 -6 -18 -23 -14 -13 3 -40
-4 -65 -18 -47 -24 -68 -29 -137 -29 -35 0 -48 5 -68 28 -27 30 -78 123 -68
123 3 0 -2 7 -11 16 -10 10 -12 20 -7 28 21 26 34 86 22 101 -17 20 -32 10
-54 -36 -11 -22 -29 -45 -40 -51 -33 -18 -133 -14 -154 5 -10 10 -26 17 -35
17 -10 0 -27 12 -40 27 -57 68 -84 83 -74 41 5 -21 5 -21 -7 -6 -9 12 -16 14
-23 7 -8 -8 -17 -8 -32 0 -24 13 -28 31 -6 31 8 0 15 5 15 10 0 6 -9 10 -20
10 -16 0 -19 6 -16 36 2 20 9 40 16 44 17 10 23 102 9 138 -6 15 -10 52 -10
82 0 34 -7 75 -20 108 -18 43 -20 58 -10 78 6 14 15 23 19 20 4 -3 24 10 44
29 20 18 39 30 42 27 3 -3 6 0 6 7 0 7 6 11 13 8 6 -2 21 -1 32 3 20 8 146 7
175 -1z m6128 -63 c42 -22 62 -68 49 -117 -12 -48 -22 -49 -37 -4 -8 24 -18
35 -31 35 -11 0 -18 -4 -14 -9 3 -5 1 -12 -4 -15 -5 -4 -12 -2 -16 4 -9 15
-25 12 -25 -5 0 -8 -5 -15 -11 -15 -6 0 -24 -14 -41 -31 -17 -16 -43 -33 -59
-36 -16 -3 -29 -11 -29 -17 -1 -33 -29 46 -30 83 -1 118 133 186 248 127z
m-4878 -30 c0 -3 -4 -8 -10 -11 -5 -3 -10 -1 -10 4 0 6 5 11 10 11 6 0 10 -2
10 -4z m-773 -78 c-3 -8 -6 -5 -6 6 -1 11 2 17 5 13 3 -3 4 -12 1 -19z m5958
5 c7 -9 26 -18 43 -19 38 -2 52 -11 52 -30 0 -10 8 -14 22 -12 19 3 22 -2 26
-36 5 -52 -13 -90 -65 -136 -82 -72 -166 -62 -207 25 -40 83 -16 173 56 208
42 21 58 21 73 0z m-5255 -63 c0 -5 -4 -10 -9 -10 -6 0 -13 5 -16 10 -3 6 1
10 9 10 9 0 16 -4 16 -10z m81 -25 c0 -5 4 -14 9 -20 7 -9 14 -56 11 -79 -1
-5 -7 -4 -14 3 -7 6 -28 9 -47 6 -38 -5 -70 9 -70 30 0 8 -7 15 -15 15 -8 0
-15 6 -15 13 0 24 17 38 50 42 18 3 35 6 37 9 7 7 53 -9 54 -19z m-157 -250
c-4 -9 0 -15 7 -15 12 0 12 -2 0 -9 -9 -6 -20 -3 -33 8 -18 16 -18 16 4 23 13
3 24 6 25 7 1 1 0 -6 -3 -14z m4959 -245 c3 -11 2 -20 -3 -20 -4 0 -10 9 -13
20 -3 11 -2 20 3 20 4 0 10 -9 13 -20z m-5190 -46 c13 -13 -3 -21 -32 -16 -17
2 -28 8 -25 13 6 10 48 12 57 3z m-35 -64 c1 -26 42 -89 42 -63 0 6 11 8 26 5
19 -3 22 -7 12 -13 -9 -6 -6 -9 11 -9 13 0 21 -3 17 -7 -4 -4 -15 -8 -24 -8
-9 0 -17 -7 -18 -15 -2 -35 -5 -41 -14 -35 -5 3 -10 1 -10 -5 0 -6 7 -13 15
-17 12 -4 10 -9 -11 -19 -20 -11 -30 -11 -40 -3 -7 6 -18 8 -24 4 -5 -3 -10 2
-10 11 0 14 -3 15 -12 6 -17 -17 -28 -15 -28 7 0 11 9 22 19 26 11 3 22 13 25
21 3 8 2 12 -4 9 -6 -3 -10 1 -10 9 0 9 3 16 8 16 4 0 6 18 4 40 -2 22 -2 47
2 55 9 25 23 17 24 -15z m59 8 c-3 -8 -6 -5 -6 6 -1 11 2 17 5 13 3 -3 4 -12
1 -19z m4273 -17 c0 -6 -4 -13 -10 -16 -5 -3 -10 1 -10 9 0 9 5 16 10 16 6 0
10 -4 10 -9z m-4290 -17 c0 -8 -5 -12 -10 -9 -6 4 -8 11 -5 16 9 14 15 11 15
-7z m6177 -189 c8 -8 19 -13 24 -10 5 4 9 -2 9 -11 0 -16 1 -16 19 0 18 16 20
16 28 1 9 -16 43 -12 43 6 0 27 51 -11 63 -47 7 -18 6 -18 -9 1 -11 14 -18 16
-21 8 -3 -7 -13 -13 -24 -13 -10 0 -19 -5 -19 -11 0 -6 7 -8 16 -5 12 4 15 2
10 -9 -3 -8 4 -24 17 -36 16 -15 18 -19 5 -14 -12 5 -18 2 -18 -6 0 -7 -3 -9
-7 -5 -4 4 -8 15 -8 23 0 9 -7 19 -15 21 -12 4 -13 3 -3 -10 7 -8 10 -18 6
-21 -3 -4 2 -16 12 -27 10 -11 15 -23 10 -28 -4 -4 -10 -1 -12 6 -3 6 -11 12
-19 12 -9 0 -12 5 -9 10 3 6 1 10 -4 10 -15 0 -14 -17 1 -26 7 -5 3 -10 -13
-16 -15 -6 -25 -5 -27 1 -5 14 -39 14 -47 1 -3 -5 -12 -7 -20 -4 -8 4 -12 10
-9 15 4 7 -42 14 -68 10 -13 -2 -9 16 7 29 12 10 13 16 4 26 -9 11 -6 14 14
14 41 0 55 9 51 33 -2 12 -2 16 2 10 8 -18 34 -16 34 2 0 8 -7 15 -15 15 -8 0
-15 9 -15 20 0 23 0 23 -37 10 l-28 -10 25 20 c30 24 28 23 47 5z m307 -53 c2
-4 -4 -8 -14 -8 -10 0 -16 4 -14 8 3 4 9 8 14 8 5 0 11 -4 14 -8z m-340 -27
c3 -9 0 -15 -9 -15 -8 0 -15 7 -15 15 0 8 4 15 9 15 5 0 11 -7 15 -15z m-5724
-15 c0 -5 -5 -10 -11 -10 -5 0 -7 5 -4 10 3 6 8 10 11 10 2 0 4 -4 4 -10z
m5645 -30 c3 -5 1 -10 -4 -10 -6 0 -11 5 -11 10 0 6 2 10 4 10 3 0 8 -4 11
-10z m-6995 -40 c0 -5 -2 -10 -4 -10 -3 0 -8 5 -11 10 -3 6 -1 10 4 10 6 0 11
-4 11 -10z m7030 -29 c0 -4 -11 -6 -25 -3 -14 2 -25 6 -25 8 0 2 11 4 25 4 14
0 25 -4 25 -9z m-270 -21 c0 -5 -19 -10 -42 -9 -37 1 -39 2 -18 9 36 12 60 12
60 0z m450 6 c0 -3 -4 -8 -10 -11 -5 -3 -10 -1 -10 4 0 6 5 11 10 11 6 0 10
-2 10 -4z m-740 -41 c0 -5 4 -4 9 4 7 10 14 8 35 -10 14 -12 26 -29 26 -36 0
-8 5 -11 11 -7 7 4 10 1 7 -7 -2 -7 -15 -17 -29 -21 -19 -6 -17 -7 9 -3 17 2
32 0 32 -5 0 -6 -6 -10 -13 -10 -9 0 -12 -10 -9 -30 2 -16 10 -30 17 -30 8 0
27 -14 44 -31 20 -20 37 -29 48 -25 14 6 14 8 -3 21 -16 12 -16 14 -3 15 12 0
15 9 14 33 -3 40 3 57 21 57 8 0 14 5 14 10 0 6 17 -1 38 -14 29 -18 43 -21
56 -14 25 14 33 1 10 -17 -23 -17 -11 -20 18 -4 16 9 23 8 29 -2 14 -22 10
-27 -13 -22 -22 5 -22 5 -5 -13 15 -17 19 -17 27 -4 5 8 10 23 10 33 0 9 5 17
10 17 10 0 15 -35 11 -74 0 -10 6 -24 15 -31 15 -11 14 -12 -5 -10 -13 1 -26
6 -29 11 -15 21 -49 15 -60 -11 -14 -31 -33 -25 -25 8 7 25 4 23 -21 -17 -15
-23 -15 -28 -3 -23 8 3 19 1 24 -4 14 -14 45 1 39 17 -6 15 19 20 28 5 3 -5
15 -7 26 -4 11 3 20 1 20 -4 0 -10 76 -34 114 -37 13 0 22 -4 20 -8 -3 -4 4
-16 16 -28 11 -11 20 -15 20 -9 0 8 12 10 35 6 20 -3 33 -2 31 2 -3 4 -1 13 4
21 8 12 13 13 30 2 11 -7 20 -9 20 -5 0 19 63 29 165 27 147 -3 146 -3 141
-31 -4 -18 0 -23 16 -23 14 0 18 -5 14 -15 -3 -9 0 -15 9 -15 18 0 20 -19 2
-26 -9 -3 -12 -25 -11 -75 1 -54 -2 -72 -13 -76 -8 -3 -12 -12 -8 -21 5 -13 3
-13 -11 -1 -16 13 -17 11 -10 -13 7 -32 -1 -36 -21 -10 -12 15 -13 14 -8 -13
5 -25 4 -27 -5 -12 -9 14 -15 15 -31 6 -12 -6 -23 -8 -27 -5 -3 3 0 6 7 6 7 0
9 5 6 10 -4 6 -10 8 -15 5 -5 -3 -19 -1 -30 5 -17 9 -19 8 -13 -7 6 -15 4 -16
-9 -5 -9 7 -27 10 -41 7 -16 -4 -30 -1 -41 11 -10 9 -30 17 -45 16 -25 0 -27
2 -23 26 5 25 4 26 -12 9 -10 -9 -26 -17 -37 -17 -26 0 -24 9 4 20 16 6 7 8
-33 5 -36 -2 -63 2 -77 11 -19 12 -22 12 -17 0 9 -23 -45 -16 -61 7 -8 12 -15
16 -15 10 0 -8 -19 -11 -54 -10 -51 2 -86 -10 -58 -20 21 -8 13 -26 -9 -20
-16 4 -19 3 -11 -5 13 -13 4 -38 -14 -38 -9 0 -11 6 -7 18 6 14 4 15 -9 4 -12
-10 -25 -10 -50 -3 -18 5 -27 10 -20 10 6 1 12 10 12 21 0 11 7 20 15 20 8 0
15 5 15 10 0 6 -7 10 -15 10 -8 0 -15 5 -15 10 0 6 10 8 23 5 16 -4 29 0 41
14 19 21 19 21 33 1 18 -25 28 -25 54 1 20 20 20 21 2 34 -17 14 -17 14 1 15
11 0 16 3 12 8 -4 4 -13 7 -19 7 -6 0 -14 11 -17 25 l-6 25 -8 -23 c-4 -13 -3
-28 2 -35 15 -19 24 -57 14 -57 -5 0 -15 20 -22 44 -12 44 -7 86 11 86 6 0 7
5 4 10 -3 6 -2 10 4 10 6 0 8 7 5 15 -4 9 -19 15 -35 15 -31 0 -40 -16 -13
-22 9 -2 -4 -8 -29 -14 -25 -5 -44 -6 -41 -2 3 4 -2 8 -10 8 -9 0 -16 5 -16
10 0 6 7 10 16 10 8 0 12 5 9 10 -5 8 -11 8 -19 1 -7 -6 -17 -7 -21 -3 -5 4
-5 -1 -2 -10 9 -24 -10 -23 -23 1 -7 14 -6 21 3 24 6 2 9 7 6 11 -7 8 -59 -14
-59 -25 0 -4 -18 2 -40 12 -25 12 -38 24 -34 31 5 7 3 8 -5 3 -9 -5 -10 -10
-2 -18 6 -6 11 -17 11 -25 0 -10 -4 -10 -16 3 -9 9 -23 14 -30 11 -8 -3 -14 1
-14 10 0 10 -6 14 -15 10 -9 -3 -19 3 -26 15 -6 11 -16 19 -22 16 -7 -2 -21
-1 -32 3 -11 4 -25 3 -32 -2 -6 -5 -25 -11 -42 -13 -29 -4 -29 -3 -26 33 3 20
2 29 -1 20 -3 -10 -12 -18 -21 -18 -13 0 -13 3 -3 15 10 12 9 16 -9 23 -20 7
-20 9 -7 27 9 11 16 14 16 8 0 -7 5 -13 11 -13 6 0 9 6 6 14 -3 8 1 17 9 20 8
3 14 12 14 21 0 8 5 15 10 15 6 0 10 6 10 14 0 7 13 16 29 19 16 4 32 14 35
24 4 13 16 18 41 18 19 0 35 -4 35 -10z m-992 -17 c-2 -6 -10 -14 -16 -16 -7
-2 -10 2 -6 12 7 18 28 22 22 4z m822 -8 c0 -5 -5 -10 -11 -10 -5 0 -7 5 -4
10 3 6 8 10 11 10 2 0 4 -4 4 -10z m315 -30 c-3 -5 -14 -10 -23 -9 -14 0 -13
2 3 9 27 11 27 11 20 0z m-6660 -30 c3 -5 2 -10 -4 -10 -5 0 -13 5 -16 10 -3
6 -2 10 4 10 5 0 13 -4 16 -10z m98 -10 c-4 -16 -14 -20 -44 -20 -37 0 -51 12
-29 25 6 3 10 0 10 -7 0 -9 3 -9 10 2 8 12 12 12 18 2 7 -10 11 -10 22 3 17
20 19 19 13 -5z m6547 -40 c0 -5 -7 -10 -15 -10 -8 0 -15 5 -15 10 0 6 7 10
15 10 8 0 15 -4 15 -10z m39 -21 c-19 -12 -24 -2 -8 17 9 11 14 13 17 4 3 -7
-2 -16 -9 -21z m-579 -9 c11 -11 15 -20 9 -20 -11 0 -39 24 -39 34 0 11 10 6
30 -14z m-330 0 c0 -5 -4 -10 -10 -10 -5 0 -10 5 -10 10 0 6 5 10 10 10 6 0
10 -4 10 -10z m1340 -140 c0 -5 -4 -10 -10 -10 -5 0 -10 5 -10 10 0 6 5 10 10
10 6 0 10 -4 10 -10z m-765 -20 c3 -6 -1 -7 -9 -4 -18 7 -21 14 -7 14 6 0 13
-4 16 -10z m405 -10 c0 -5 -2 -10 -4 -10 -3 0 -8 5 -11 10 -3 6 -1 10 4 10 6
0 11 -4 11 -10z m-880 -65 c0 -5 -5 -3 -10 5 -5 8 -10 20 -10 25 0 6 5 3 10
-5 5 -8 10 -19 10 -25z m50 5 c0 -5 -5 -10 -11 -10 -5 0 -7 5 -4 10 3 6 8 10
11 10 2 0 4 -4 4 -10z m880 -71 c0 -14 -17 -10 -23 5 -4 10 -1 13 9 9 7 -3 14
-9 14 -14z m-7371 -73 c9 -11 9 -15 -1 -19 -10 -4 -10 -8 -1 -14 9 -6 8 -16
-4 -41 -17 -36 -51 -43 -78 -16 -8 9 -22 14 -29 11 -8 -3 -18 5 -25 19 -12 28
-14 41 -4 31 3 -4 13 -1 22 7 18 15 67 34 92 35 9 1 22 -5 28 -13z m2197 -58
c30 -20 31 -24 32 -101 2 -70 -1 -86 -24 -125 -14 -24 -24 -52 -21 -63 3 -12
1 -17 -6 -12 -7 4 -8 0 -4 -11 5 -12 3 -16 -5 -13 -7 2 -20 -2 -29 -10 -26
-22 -73 -19 -131 10 -62 31 -91 72 -106 154 -14 79 17 132 104 178 42 22 57
24 104 19 30 -3 69 -15 86 -26z m-1389 -25 c-4 -3 -1 -13 6 -22 11 -14 10 -14
-5 -2 -16 12 -16 31 -1 31 4 0 3 -3 0 -7z m6607 -93 c12 -9 17 -10 12 -2 -4 7
-1 12 8 12 20 0 20 -14 1 -30 -23 -19 -18 -33 10 -26 21 5 24 3 22 -16 -1 -16
3 -23 15 -22 14 1 15 -2 5 -17 -6 -10 -14 -16 -18 -14 -3 3 -14 -2 -24 -9 -18
-13 -18 -14 3 -20 12 -4 22 -12 22 -17 0 -13 -17 -11 -26 2 -3 6 -20 9 -36 7
-27 -4 -29 -3 -23 19 5 22 4 23 -17 12 -20 -11 -21 -10 -11 3 15 18 7 29 -15
20 -14 -5 -15 -3 -4 10 9 12 10 23 2 43 -9 24 -7 30 10 42 11 8 20 22 20 31 1
15 2 15 13 2 7 -8 21 -22 31 -30z m-6743 -3 c-10 -9 -11 -8 -5 6 3 10 9 15 12
12 3 -3 0 -11 -7 -18z m6654 -46 c3 -5 1 -12 -5 -16 -5 -3 -10 1 -10 9 0 18 6
21 15 7z m169 -6 c-4 -8 -11 -15 -16 -15 -6 0 -5 6 2 15 7 8 14 15 16 15 2 0
1 -7 -2 -15z m-6807 -57 c-3 -8 -6 -5 -6 6 -1 11 2 17 5 13 3 -3 4 -12 1 -19z
m6843 12 c0 -5 -2 -10 -4 -10 -3 0 -8 5 -11 10 -3 6 -1 10 4 10 6 0 11 -4 11
-10z m-6801 -31 c-16 -10 -23 -4 -14 10 3 6 11 8 17 5 6 -4 5 -9 -3 -15z
m5555 -29 c18 -17 40 -100 29 -110 -3 -3 -8 1 -10 8 -7 19 -19 14 -31 -13 -17
-36 -14 -45 4 -15 12 21 14 22 12 5 -2 -12 2 -19 9 -18 13 3 13 -23 0 -44 -4
-6 -4 -19 0 -29 5 -13 3 -16 -10 -11 -8 3 -21 -1 -28 -9 -7 -9 -20 -12 -32 -8
-14 4 -17 3 -12 -7 6 -9 3 -11 -8 -6 -10 4 -17 2 -17 -4 0 -16 -91 -1 -112 18
-17 15 -18 14 -18 -3 -1 -18 -1 -18 -14 -1 -7 9 -17 17 -22 17 -12 0 -46 39
-48 56 -1 7 -4 16 -7 18 -3 3 -3 21 -1 41 4 30 7 35 23 30 15 -5 19 -1 19 15
0 11 7 23 16 27 9 3 19 15 23 27 16 42 195 54 235 16z m-6398 -44 c17 -17 33
-41 36 -53 7 -27 -10 -111 -28 -139 -8 -11 -11 -23 -8 -27 12 -11 -62 -40
-110 -42 -37 -2 -54 2 -73 18 -34 30 -72 110 -43 92 6 -3 10 -3 10 2 7 125 16
147 75 174 53 24 101 16 141 -25z m1958 -2 c10 -27 7 -32 -24 -39 -16 -4 -30
-12 -31 -18 0 -7 -4 -3 -9 8 -8 19 -9 19 -9 -2 -1 -13 3 -23 8 -23 15 0 -4
-53 -20 -58 -12 -3 -12 -2 0 6 12 9 11 17 -7 56 -12 25 -22 49 -22 54 0 32
102 47 114 16z m701 -373 c7 -13 -12 -24 -55 -31 -27 -4 -35 -10 -34 -26 0
-18 -6 -21 -50 -22 -69 -2 -136 -12 -136 -22 0 -4 -13 -10 -30 -12 -30 -4 -37
5 -22 28 8 12 162 64 195 65 12 0 38 7 57 14 42 16 67 18 75 6z m3843 -48 c21
-10 54 -35 75 -57 35 -38 45 -36 38 7 0 4 10 7 23 7 31 0 59 -27 50 -49 -3 -9
-7 -25 -9 -35 -1 -11 -7 -22 -13 -24 -21 -7 -13 -32 13 -44 33 -15 41 -48 21
-87 -17 -31 -71 -64 -126 -76 -17 -4 -30 -11 -30 -16 0 -6 -5 -7 -11 -4 -6 4
-16 0 -22 -8 -7 -8 -22 -17 -35 -20 -19 -4 -22 -2 -17 14 4 13 2 19 -8 19 -8
0 -17 8 -19 18 -3 10 -23 22 -52 30 -107 28 -156 144 -105 248 15 33 32 49 72
68 60 30 105 33 155 9z m-3388 -79 c0 -8 -5 -12 -10 -9 -6 4 -8 11 -5 16 9 14
15 11 15 -7z m2180 6 c0 -5 -4 -10 -10 -10 -5 0 -10 5 -10 10 0 6 5 10 10 10
6 0 10 -4 10 -10z m-96 -19 c-10 -10 -21 -17 -23 -15 -6 6 20 34 32 34 6 0 2
-8 -9 -19z m126 -16 c6 -8 18 -11 27 -8 12 5 14 1 8 -18 -4 -13 -8 -24 -9 -24
0 0 -11 -6 -24 -13 -28 -16 -89 -6 -121 19 -24 20 -24 20 -4 38 32 31 100 33
123 6z m-2964 5 c28 0 55 -43 37 -61 -11 -11 -45 -1 -37 12 3 5 1 9 -5 9 -25
0 -32 -41 -22 -127 11 -90 55 -247 76 -273 7 -8 22 -43 34 -78 11 -34 30 -79
41 -99 11 -21 20 -45 20 -54 0 -9 6 -22 14 -28 17 -14 27 -49 17 -56 -4 -2
-18 19 -31 48 -12 29 -42 94 -66 146 -24 51 -44 97 -44 103 0 5 -13 29 -30 53
-43 63 -80 166 -84 239 -2 27 -24 11 -36 -24 -7 -23 -17 -43 -22 -46 -13 -8
-9 44 7 83 11 27 18 33 28 25 10 -8 13 -3 13 26 0 49 32 115 51 108 8 -4 26
-6 39 -6z m-2957 -80 c28 -14 71 -80 71 -106 0 -26 -28 -84 -41 -84 -6 0 -8
-4 -5 -9 6 -10 -55 -97 -83 -118 -24 -19 -57 -15 -109 11 -56 29 -67 45 -83
123 -14 69 -8 100 27 142 44 53 162 74 223 41z m3011 -34 c0 -2 -7 -6 -15 -10
-8 -3 -15 -1 -15 4 0 6 7 10 15 10 8 0 15 -2 15 -4z m930 -46 c0 -5 -5 -10
-11 -10 -5 0 -7 5 -4 10 3 6 8 10 11 10 2 0 4 -4 4 -10z m3405 -88 c22 -4 61
-4 87 1 68 14 112 2 158 -42 35 -33 40 -44 40 -82 0 -85 -64 -171 -140 -189
-39 -9 -54 -9 -85 5 -31 12 -45 13 -72 4 -18 -6 -53 -11 -77 -12 -63 -3 -108
41 -129 124 -16 66 -14 90 15 132 40 56 108 76 203 59z m-4515 -12 c0 -19 -44
-110 -53 -110 -5 0 -7 4 -5 8 2 4 12 31 22 60 18 47 36 68 36 42z m-65 -148
c-2 -10 -10 -35 -19 -55 -8 -20 -11 -37 -5 -37 5 0 9 -14 9 -32 0 -24 -3 -29
-11 -21 -6 6 -18 9 -25 6 -17 -6 -18 9 -2 25 6 6 8 15 3 19 -4 5 -10 2 -13 -6
-4 -11 -6 -11 -13 0 -5 8 0 27 13 49 37 61 70 89 63 52z m-1052 -91 c3 -14 0
-17 -14 -14 -20 5 -24 15 -12 26 11 12 21 8 26 -12z m963 -63 c-6 -4 -37 -8
-68 -8 l-57 0 34 -37 c19 -21 35 -41 35 -44 0 -9 -63 2 -77 13 -7 6 -31 7 -55
3 -43 -8 -71 -33 -246 -219 -29 -31 -59 -56 -67 -56 -7 0 -21 -7 -30 -17 -11
-10 -38 -17 -76 -19 -33 -2 -68 -8 -79 -14 -10 -6 -39 -12 -64 -15 -54 -5
-137 -44 -185 -86 -35 -30 -57 -33 -55 -7 1 10 -6 13 -23 10 -33 -6 -39 -22
-9 -22 18 0 24 -4 20 -15 -4 -8 -14 -15 -23 -15 -9 0 -24 -7 -35 -15 -13 -10
-24 -11 -37 -5 -25 14 -32 12 -25 -5 4 -11 -2 -15 -22 -15 -15 0 -38 -7 -52
-15 -59 -34 -100 -48 -197 -67 -35 -6 -54 -16 -58 -27 -7 -23 -47 -41 -90 -41
-19 0 -35 -3 -35 -7 0 -5 25 -6 55 -5 30 2 55 8 55 13 0 5 9 9 19 9 11 0 23 5
27 11 3 6 15 8 27 5 11 -3 38 5 61 16 30 16 63 22 125 24 56 2 87 7 92 16 7
10 14 9 38 -5 16 -9 48 -17 71 -17 38 0 41 2 35 23 -4 12 -16 36 -26 53 -23
37 -23 44 -5 44 8 0 17 -12 21 -27 3 -16 17 -45 31 -66 19 -29 29 -64 39 -142
7 -58 16 -109 20 -115 3 -5 -1 -10 -9 -10 -12 0 -16 10 -16 36 0 43 -29 146
-39 140 -4 -3 -13 0 -21 5 -13 8 -13 10 0 18 20 14 9 21 -36 24 l-39 2 0 -48
c0 -54 -15 -57 -28 -6 -14 57 -57 79 -57 30 0 -24 -3 -28 -20 -24 -11 3 -27 0
-35 -7 -8 -6 -29 -13 -47 -14 -18 -2 -39 -4 -47 -5 -8 0 -11 -7 -6 -18 3 -10
-6 -4 -22 12 -31 33 -83 44 -102 21 -6 -7 -8 -27 -5 -45 5 -24 14 -33 38 -40
24 -7 26 -9 9 -10 -12 -1 -25 -5 -28 -11 -3 -5 -14 -10 -23 -10 -40 -1 -45
-13 -33 -91 7 -40 16 -78 20 -83 11 -15 20 -67 14 -83 -3 -7 -11 -13 -19 -13
-8 0 -14 -5 -14 -11 0 -6 6 -9 14 -6 23 9 44 -25 47 -78 3 -45 1 -50 -18 -51
-23 -1 -33 20 -64 141 -7 28 -17 53 -23 57 -6 4 -12 28 -13 54 -2 26 -7 52
-12 58 -5 6 -14 36 -21 66 -16 72 -27 100 -40 100 -5 0 -10 -9 -10 -21 0 -13
-8 -23 -20 -26 -28 -7 -21 -35 10 -44 14 -4 19 -7 12 -8 -7 -1 -22 -10 -34
-21 -12 -11 -34 -20 -50 -20 -30 0 -35 9 -17 27 9 9 9 20 0 43 -6 18 -8 36 -5
41 15 26 -99 -21 -143 -58 -20 -17 -21 -23 -12 -93 12 -98 14 -113 35 -188 9
-34 14 -65 11 -68 -12 -12 -27 9 -33 47 -4 22 -10 42 -14 44 -5 3 -6 14 -3 25
3 12 -1 22 -11 26 -10 4 -16 18 -16 38 0 18 -3 36 -7 40 -4 3 -7 21 -7 39 -1
29 -4 32 -33 35 -19 2 -33 -1 -33 -7 0 -6 -6 -11 -14 -11 -8 0 -17 -7 -20 -16
-3 -9 -12 -14 -19 -11 -19 7 -80 -21 -72 -33 3 -5 -2 -10 -13 -10 -10 0 -22
-3 -25 -7 -4 -3 -33 -8 -64 -10 -32 -2 -70 -8 -85 -14 -14 -6 -35 -8 -46 -5
-11 4 -23 2 -27 -4 -3 -5 -15 -10 -27 -10 -11 0 -32 -9 -48 -20 -30 -21 -80
-43 -80 -34 0 32 71 86 130 99 19 4 40 15 47 25 7 9 34 23 60 30 48 12 124 48
278 130 44 23 109 53 145 66 36 14 88 35 115 49 91 43 164 75 243 106 68 27
97 41 175 81 77 39 185 92 202 98 11 4 45 19 75 33 177 79 229 101 360 153 80
32 155 64 168 72 12 8 25 12 29 9 3 -4 15 0 27 8 11 8 28 15 38 15 9 0 21 6
25 14 4 7 24 21 43 31 18 10 40 23 47 29 65 57 110 86 136 86 13 0 27 4 33 9
5 6 36 16 69 23 53 12 61 12 66 -2 4 -8 1 -18 -5 -22z m-156 -117 c0 -5 -9
-11 -20 -14 -20 -5 -26 3 -13 16 9 10 33 8 33 -2z m100 -37 c0 -2 -7 -4 -15
-4 -8 0 -15 4 -15 10 0 5 7 7 15 4 8 -4 15 -8 15 -10z m814 0 c3 -8 2 -12 -4
-9 -6 3 -10 10 -10 16 0 14 7 11 14 -7z m2506 -232 c0 -15 -2 -15 -10 -2 -13
20 -13 33 0 25 6 -3 10 -14 10 -23z m-3675 -59 c7 -23 24 -56 39 -73 14 -18
26 -40 26 -51 0 -11 6 -30 14 -42 20 -29 33 -127 17 -127 -19 0 -12 -27 9 -33
11 -3 20 -10 20 -17 0 -7 -8 -9 -20 -5 -11 3 -20 2 -20 -4 0 -5 10 -11 23 -13
24 -3 31 -33 7 -33 -8 0 -15 -7 -15 -15 0 -8 6 -14 13 -12 6 1 12 -5 12 -14 0
-8 7 -23 16 -32 15 -14 15 -17 -2 -29 -27 -20 -39 -1 -57 87 -8 41 -27 114
-41 163 -14 48 -26 93 -26 100 0 6 -16 48 -36 92 -19 44 -38 86 -41 93 -4 10
2 13 22 10 23 -2 30 -10 40 -45z m-125 27 c12 -8 10 -10 -10 -10 -14 0 -32 5
-40 10 -12 8 -10 10 10 10 14 0 32 -5 40 -10z m3826 -38 c-8 -9 -19 -13 -22
-9 -10 9 16 38 28 31 6 -4 4 -13 -6 -22z m-4047 -20 c24 -35 37 -82 22 -82
-12 0 -35 42 -45 83 -8 34 -3 34 23 -1z m-64 -32 c8 -16 15 -34 15 -40 0 -6 9
-30 20 -52 11 -23 20 -51 20 -61 0 -18 -1 -19 -17 -4 -12 10 -28 13 -45 10
-17 -3 -28 -1 -28 6 0 6 13 11 29 11 26 0 29 3 27 25 -2 14 -12 37 -24 50 -12
14 -22 30 -22 35 0 6 -6 13 -14 16 -18 7 -9 34 10 34 7 0 20 -13 29 -30z
m4135 16 c0 -8 6 -16 13 -19 9 -3 9 -8 1 -17 -17 -17 -58 18 -42 37 14 17 28
17 28 -1z m-3085 -76 c7 -24 7 -24 -9 -5 -8 11 -15 29 -15 40 0 16 1 17 8 5 5
-8 12 -26 16 -40z m3140 -18 c0 -18 -20 -15 -23 4 -3 10 1 15 10 12 7 -3 13
-10 13 -16z m-4081 -7 c3 -8 1 -15 -4 -15 -6 0 -10 7 -10 15 0 8 2 15 4 15 2
0 6 -7 10 -15z m965 -65 c0 -9 -4 -8 -9 5 -5 11 -9 27 -9 35 0 9 4 8 9 -5 5
-11 9 -27 9 -35z m-1359 30 c0 -5 -4 -10 -10 -10 -5 0 -10 5 -10 10 0 6 5 10
10 10 6 0 10 -4 10 -10z m867 4 c-3 -3 -12 -4 -19 -1 -8 3 -5 6 6 6 11 1 17
-2 13 -5z m3697 -67 c29 -30 50 -59 48 -65 -2 -7 1 -12 7 -12 6 0 11 -7 11
-15 0 -17 -9 -19 -28 -7 -8 5 -10 16 -6 27 5 11 4 16 -3 12 -5 -3 -19 2 -31
13 -25 24 -72 84 -72 93 0 19 27 2 74 -46z m-4149 22 c11 -17 -1 -21 -15 -4
-8 9 -8 15 -2 15 6 0 14 -5 17 -11z m1876 -17 c24 -21 32 -39 36 -74 5 -40 2
-50 -20 -72 -37 -37 -78 -34 -124 7 -31 29 -36 40 -36 77 0 83 82 118 144 62z
m-905 -79 c-11 -11 -24 9 -18 29 l5 22 9 -24 c5 -12 6 -25 4 -27z m-1318 -44
c-2 -6 -8 -10 -13 -10 -5 0 -11 4 -13 10 -2 6 4 11 13 11 9 0 15 -5 13 -11z
m-138 -9 c0 -5 -17 -10 -37 -10 -21 0 -49 -3 -63 -6 -17 -5 -22 -4 -15 4 9 9
34 15 98 20 9 1 17 -2 17 -8z m433 -4 c4 -10 1 -13 -8 -9 -8 3 -12 9 -9 14 7
12 11 11 17 -5z m1047 -34 c0 -7 -4 -10 -10 -7 -5 3 -10 16 -10 28 0 18 2 19
10 7 5 -8 10 -21 10 -28z m-970 12 c0 -8 -4 -12 -10 -9 -5 3 -10 10 -10 16 0
5 5 9 10 9 6 0 10 -7 10 -16z m-350 -48 c0 -11 -19 -15 -25 -6 -3 5 1 10 9 10
9 0 16 -2 16 -4z m285 -16 c3 -5 -3 -10 -15 -10 -12 0 -18 5 -15 10 3 6 10 10
15 10 5 0 12 -4 15 -10z m81 -38 c-10 -10 -29 15 -21 28 6 9 10 8 17 -4 6 -10
7 -20 4 -24z m984 4 c0 -3 -4 -8 -10 -11 -5 -3 -10 -1 -10 4 0 6 5 11 10 11 6
0 10 -2 10 -4z m-1940 -37 c0 -9 -41 -29 -60 -29 -11 0 0 43 14 52 12 8 46 -9
46 -23z m2389 21 c25 -13 45 -64 37 -94 -18 -72 -105 -76 -108 -5 -2 51 3 70
22 89 23 23 25 23 49 10z m-1659 -31 c0 -5 -4 -9 -10 -9 -5 0 -10 7 -10 16 0
8 5 12 10 9 6 -3 10 -10 10 -16z m-1056 -57 c3 -26 7 -58 7 -72 0 -14 4 -29 9
-35 13 -16 22 -75 12 -75 -12 0 -32 46 -32 75 0 21 -5 25 -30 25 -16 0 -30 5
-30 10 0 6 8 10 18 8 17 -3 18 4 11 52 -1 8 -1 30 -1 49 3 50 28 23 36 -37z
m1312 13 c12 -37 4 -54 -14 -32 -5 6 -13 27 -17 44 -9 46 16 35 31 -12z m359
35 c28 -11 26 -30 -3 -25 -9 2 -20 4 -24 4 -8 1 -11 31 -4 31 3 0 17 -4 31
-10z m785 -20 c0 -5 -2 -10 -4 -10 -3 0 -8 5 -11 10 -3 6 -1 10 4 10 6 0 11
-4 11 -10z m-1637 -7 c-7 -2 -19 -2 -25 0 -7 3 -2 5 12 5 14 0 19 -2 13 -5z
m112 -3 c3 -5 -3 -10 -15 -10 -12 0 -18 5 -15 10 3 6 10 10 15 10 5 0 12 -4
15 -10z m135 -24 c-13 -13 -35 7 -25 24 5 8 11 8 21 -1 10 -8 12 -15 4 -23z
m-363 18 c-3 -3 -12 -4 -19 -1 -8 3 -5 6 6 6 11 1 17 -2 13 -5z m531 -11 c5
-18 -10 -16 -34 2 -18 15 -18 15 5 13 14 -2 26 -9 29 -15z m4222 3 c0 -7 9
-25 21 -40 l20 -26 -20 0 c-12 0 -21 -4 -21 -9 0 -12 47 -61 60 -61 5 0 10 -5
10 -10 0 -7 -6 -7 -20 0 -16 8 -20 8 -20 -4 0 -7 19 -23 43 -35 42 -21 42 -22
10 -18 -39 4 -46 -18 -10 -33 l22 -9 -24 0 c-20 -1 -22 -5 -16 -23 4 -13 15
-66 25 -120 10 -53 25 -111 33 -130 9 -18 18 -49 22 -68 7 -40 42 -163 57
-200 9 -23 25 -100 33 -160 2 -14 8 -56 15 -95 6 -38 11 -81 11 -95 1 -14 4
-29 8 -35 6 -9 7 -58 2 -115 -3 -24 -3 -24 -12 5 -5 17 -11 55 -13 85 -2 30
-5 56 -6 58 -2 1 -4 14 -5 30 -2 25 -10 75 -34 212 -5 30 -17 75 -26 100 -9
25 -18 56 -19 70 -1 14 -14 63 -28 110 -25 83 -63 227 -75 283 -11 53 -20 26
-11 -35 9 -67 5 -102 -7 -53 -3 17 -17 60 -30 98 -13 37 -19 67 -14 67 14 0
11 33 -6 57 -8 12 -13 28 -10 35 7 17 -40 63 -54 53 -6 -3 -8 -12 -4 -18 13
-21 25 -101 28 -182 3 -69 2 -73 -5 -29 -4 29 -11 57 -15 64 -4 7 -9 33 -11
58 -2 29 -9 51 -19 58 -10 7 -14 18 -9 25 4 7 -1 18 -12 27 -13 10 -15 16 -6
19 6 3 12 14 13 26 0 22 0 22 9 -1 12 -29 80 -57 80 -33 0 5 -7 16 -15 25 -19
19 -19 26 1 26 11 0 14 5 10 16 -7 19 10 44 30 44 8 0 14 -6 14 -14z m-3755
-33 c0 -11 6 -27 14 -36 11 -14 11 -18 -3 -23 -22 -8 -45 2 -52 23 -3 10 -10
26 -16 37 -7 13 -6 21 3 26 19 12 54 -5 54 -27z m-1381 15 c-3 -4 -12 -8 -20
-8 -8 0 -13 4 -10 8 3 5 12 9 20 9 8 0 13 -4 10 -9z m1226 2 c12 -8 11 -10 -7
-10 -13 0 -23 5 -23 10 0 13 11 13 30 0z m-1695 -9 c3 -5 1 -12 -5 -16 -9 -5
-9 -18 0 -60 1 -5 2 -19 1 -29 -2 -37 -26 2 -26 42 0 31 -4 38 -22 40 -25 4
-30 17 -10 25 21 9 56 7 62 -2z m540 -11 c3 -5 -1 -10 -10 -10 -9 0 -13 5 -10
10 3 6 8 10 10 10 2 0 7 -4 10 -10z m686 -13 c-1 -12 -15 -9 -19 4 -3 6 1 10
8 8 6 -3 11 -8 11 -12z m169 -2 c14 -16 10 -18 -14 -9 -9 3 -16 10 -16 15 0
14 16 11 30 -6z m1325 6 c3 -5 1 -12 -4 -15 -5 -3 -11 1 -15 9 -6 16 9 21 19
6z m2520 -1 c3 -5 1 -10 -4 -10 -6 0 -11 5 -11 10 0 6 2 10 4 10 3 0 8 -4 11
-10z m-4740 -9 c-14 -12 -65 -23 -65 -13 0 16 13 22 44 22 17 0 26 -4 21 -9z
m983 -10 c3 -8 -1 -12 -9 -9 -7 2 -15 10 -17 17 -3 8 1 12 9 9 7 -2 15 -10 17
-17z m-1678 -14 c0 -7 -7 -22 -15 -33 -12 -15 -16 -16 -24 -5 -6 10 -13 6 -27
-17 -18 -32 -36 -34 -31 -4 5 32 23 53 53 61 41 13 44 13 44 -2z m5975 4 c16
-7 12 -9 -20 -13 -26 -4 -45 -1 -55 8 -12 12 -9 14 20 13 19 0 44 -4 55 -8z
m-5270 -21 c3 -6 -4 -10 -17 -10 -18 0 -20 2 -8 10 19 12 18 12 25 0z m1955
-11 c0 -5 -4 -9 -10 -9 -5 0 -10 7 -10 16 0 8 5 12 10 9 6 -3 10 -10 10 -16z
m-1217 -35 c-7 -19 -23 -7 -23 18 0 17 3 18 14 8 8 -6 12 -18 9 -26z m172 7
c3 -5 1 -12 -4 -15 -5 -3 -11 1 -15 9 -6 16 9 21 19 6z m82 -17 c-9 -9 -28 6
-21 18 4 6 10 6 17 -1 6 -6 8 -13 4 -17z m379 4 c7 -5 10 -17 7 -27 -3 -10 0
-22 6 -25 6 -4 11 -12 11 -17 0 -6 -4 -7 -10 -4 -20 12 -10 -17 12 -35 19 -15
21 -21 11 -43 -10 -20 -9 -24 4 -23 20 1 58 -73 68 -131 6 -37 4 -43 -10 -43
-11 0 -15 5 -11 16 3 8 2 13 -3 10 -10 -7 -41 62 -72 159 -12 39 -30 88 -40
111 -31 67 -20 88 27 52z m-1919 -4 c3 -9 -7 -55 -22 -102 -16 -48 -29 -100
-30 -115 -1 -16 -6 -32 -11 -35 -13 -10 -34 -73 -28 -84 7 -10 -24 -37 -43
-38 -21 0 -19 34 4 79 12 24 20 48 17 53 -3 5 -1 15 5 22 16 19 71 185 71 213
0 26 27 32 37 7z m5819 -7 c4 -4 -4 -7 -19 -7 -14 0 -29 5 -32 10 -7 12 39 9
51 -3z m-5876 -1 c0 -10 -67 -75 -73 -70 -15 15 28 74 55 74 10 0 18 -2 18 -4z
m114 -54 c22 -120 18 -131 -15 -38 -18 54 -18 83 1 71 5 -3 11 -18 14 -33z
m126 28 c0 -5 -7 -10 -16 -10 -8 0 -12 5 -9 10 3 6 10 10 16 10 5 0 9 -4 9
-10z m5700 -20 c0 -13 -71 -20 -92 -9 -10 5 -17 13 -14 17 6 9 106 2 106 -8z
m-6012 -60 c-7 -10 -14 -18 -15 -16 -6 6 9 36 18 36 5 0 4 -9 -3 -20z m5192
16 c0 -3 -4 -8 -10 -11 -5 -3 -10 -1 -10 4 0 6 5 11 10 11 6 0 10 -2 10 -4z
m795 -6 c16 -7 13 -9 -17 -9 -21 -1 -38 4 -38 9 0 12 27 12 55 0z m40 0 c3 -5
1 -10 -4 -10 -6 0 -11 5 -11 10 0 6 2 10 4 10 3 0 8 -4 11 -10z m-5565 -12 c0
-7 3 -24 6 -38 5 -23 5 -23 -10 4 -18 33 -20 46 -6 46 6 0 10 -6 10 -12z m408
-2 c3 -3 -3 -8 -12 -12 -15 -6 -15 -7 1 -19 15 -11 15 -17 5 -40 -14 -31 -20
-29 -27 6 -3 13 -7 36 -11 51 -5 24 -3 27 17 23 12 -2 24 -7 27 -9z m4502 -20
c0 -3 -4 -8 -10 -11 -5 -3 -10 -1 -10 4 0 6 5 11 10 11 6 0 10 -2 10 -4z m540
-40 c0 -3 -4 -8 -10 -11 -5 -3 -10 -1 -10 4 0 6 5 11 10 11 6 0 10 -2 10 -4z
m90 -6 c0 -5 -4 -10 -9 -10 -6 0 -13 5 -16 10 -3 6 1 10 9 10 9 0 16 -4 16
-10z m-5091 -125 c0 -19 -2 -25 -8 -17 -4 7 -14 12 -21 10 -7 -2 -17 8 -21 22
-10 36 -10 72 0 65 5 -3 13 0 17 7 10 15 32 -45 33 -87z m818 73 c-3 -8 -6 -5
-6 6 -1 11 2 17 5 13 3 -3 4 -12 1 -19z m-1767 -2 c0 -3 -4 -8 -10 -11 -5 -3
-10 -1 -10 4 0 6 5 11 10 11 6 0 10 -2 10 -4z m5748 -63 c-1 -5 3 -17 9 -28
16 -29 27 -95 16 -95 -12 0 -46 107 -38 120 7 12 16 13 13 3z m113 -34 c6 -12
13 -44 16 -73 4 -40 2 -48 -7 -39 -12 11 -18 38 -23 101 -3 38 -1 39 14 11z
m-614 -41 c-3 -7 -5 -2 -5 12 0 14 2 19 5 13 2 -7 2 -19 0 -25z m-4294 -26 c7
-9 6 -11 -7 -6 -9 3 -16 16 -15 28 0 14 2 16 6 6 3 -8 10 -21 16 -28z m1243
30 c-3 -5 5 -15 19 -22 13 -7 21 -18 18 -26 -7 -18 23 -158 43 -199 17 -37 13
-55 -14 -56 -13 0 -13 -2 4 -9 20 -8 44 -66 44 -106 0 -11 7 -29 15 -41 8 -12
12 -29 8 -39 -4 -10 0 -22 11 -30 15 -10 15 -15 4 -34 -11 -18 -11 -23 6 -35
10 -7 15 -18 11 -24 -9 -15 -55 -14 -59 2 -2 6 -8 27 -14 45 -11 34 -6 66 8
57 5 -3 12 0 16 6 4 7 3 9 -3 6 -14 -9 -47 29 -40 46 3 8 -1 26 -8 41 -8 14
-17 47 -21 73 -3 27 -10 53 -14 58 -5 6 -8 21 -8 35 1 29 -29 155 -45 187 -10
22 3 73 18 73 4 0 4 -4 1 -8z m1218 -57 c4 -14 11 -25 17 -25 12 0 39 -61 39
-88 0 -11 -7 -18 -20 -18 -20 0 -40 44 -40 91 0 11 -7 33 -15 49 -19 35 -19
42 -1 27 8 -7 17 -23 20 -36z m596 30 c100 -52 64 -195 -49 -195 -35 0 -73 29
-93 71 -43 87 53 170 142 124z m-2440 -46 c0 -11 -4 -17 -10 -14 -5 3 -10 15
-10 26 0 11 5 17 10 14 6 -3 10 -15 10 -26z m265 -9 c-9 -14 -25 5 -25 30 0
12 3 12 16 -2 9 -9 13 -21 9 -28z m-85 20 c0 -5 -7 -10 -15 -10 -8 0 -15 5
-15 10 0 6 7 10 15 10 8 0 15 -4 15 -10z m1040 -11 c0 -6 -4 -7 -10 -4 -5 3
-10 11 -10 16 0 6 5 7 10 4 6 -3 10 -11 10 -16z m-1820 1 c-10 -6 -9 -10 2
-16 17 -10 31 -91 17 -100 -5 -3 -9 2 -9 10 0 9 -4 16 -10 16 -5 0 -10 -4 -10
-8 0 -15 22 -30 36 -25 10 4 14 -3 14 -22 0 -15 7 -52 16 -82 9 -30 14 -56 12
-58 -1 -2 -14 -5 -28 -7 -18 -2 -26 2 -28 16 -2 10 2 23 10 27 11 8 11 10 -1
18 -8 5 -17 29 -22 52 -4 24 -13 62 -19 84 -6 22 -13 54 -15 70 -2 26 0 30 23
32 16 1 20 -2 12 -7z m4797 -67 c-3 -10 -5 -2 -5 17 0 19 2 27 5 18 2 -10 2
-26 0 -35z m-420 -95 c7 -49 8 -85 3 -88 -5 -3 0 -14 11 -23 21 -19 18 -37 -7
-37 -9 0 -14 -5 -12 -11 2 -6 7 -9 12 -7 5 2 15 -14 22 -35 15 -42 5 -77 -21
-77 -15 0 -21 16 -29 90 -3 25 -8 65 -11 90 -3 25 -12 75 -20 112 -21 97 -21
100 13 83 24 -13 28 -23 39 -97z m-3759 71 c-3 -8 -7 -3 -11 10 -4 17 -3 21 5
13 5 -5 8 -16 6 -23z m3068 -16 c-6 -48 -11 -60 -18 -46 -6 10 11 93 18 93 3
0 3 -21 0 -47z m-2797 -1 c0 -24 -1 -25 -9 -7 -12 28 -12 47 0 40 6 -3 10 -18
9 -33z m3334 -40 l-6 -27 -8 27 c-4 15 -5 38 -1 50 l5 22 9 -23 c4 -12 5 -35
1 -49z m505 49 c3 -8 -1 -12 -9 -9 -7 2 -15 10 -17 17 -3 8 1 12 9 9 7 -2 15
-10 17 -17z m211 -3 c8 -13 21 -59 28 -103 7 -44 20 -116 27 -160 8 -44 11
-84 9 -89 -10 -16 -23 19 -23 61 0 23 -4 45 -10 48 -5 3 -10 21 -10 38 0 50
-29 159 -45 171 -14 11 -11 56 4 56 3 0 13 -10 20 -22z m-136 5 c3 -5 8 -42
11 -83 4 -41 14 -106 22 -145 21 -101 44 -271 43 -324 0 -41 -1 -43 -10 -21
-6 14 -11 49 -12 79 -2 43 -6 56 -22 62 -17 6 -17 8 -2 8 12 1 17 9 17 30 0
17 -4 33 -10 36 -5 3 -10 28 -10 55 0 27 -5 52 -11 55 -6 4 -8 13 -6 20 9 21
-20 197 -33 205 -7 4 -9 13 -6 19 8 13 23 14 29 4z m435 -43 c15 0 15 -2 2
-10 -8 -5 -31 -10 -50 -10 -33 1 -34 1 -15 16 11 8 26 12 33 9 8 -3 21 -5 30
-5z m-4318 -83 c0 -39 -22 -1 -26 45 l-3 43 14 -34 c8 -18 15 -43 15 -54z
m1600 43 c0 -5 -12 -10 -26 -10 -14 0 -23 4 -19 10 3 6 15 10 26 10 10 0 19
-4 19 -10z m1154 -12 c-4 -13 -8 -50 -9 -82 0 -38 -5 -61 -13 -64 -10 -3 -12
9 -7 50 11 95 16 118 26 118 6 0 7 -9 3 -22z m-1784 -4 c0 -8 -4 -12 -10 -9
-5 3 -10 10 -10 16 0 5 5 9 10 9 6 0 10 -7 10 -16z m240 -21 c0 -13 -3 -13
-15 -3 -8 7 -12 16 -9 21 8 13 24 1 24 -18z m-1295 7 c3 -5 -1 -10 -9 -10 -9
0 -16 5 -16 10 0 6 4 10 9 10 6 0 13 -4 16 -10z m1215 0 c0 -5 -2 -10 -4 -10
-3 0 -8 5 -11 10 -3 6 -1 10 4 10 6 0 11 -4 11 -10z m-1390 -16 c0 -8 -4 -12
-10 -9 -5 3 -10 10 -10 16 0 5 5 9 10 9 6 0 10 -7 10 -16z m290 -101 c0 -2 -6
-3 -14 -3 -14 0 -28 57 -18 74 3 6 31 -54 32 -71z m980 26 c0 -5 -7 -6 -15 -3
-8 4 -15 13 -15 21 0 13 3 13 15 3 8 -7 15 -16 15 -21z m1240 15 c0 -8 -4 -12
-10 -9 -5 3 -10 10 -10 16 0 5 5 9 10 9 6 0 10 -7 10 -16z m-1080 -20 c0 -2
-7 -4 -15 -4 -8 0 -15 4 -15 10 0 5 7 7 15 4 8 -4 15 -8 15 -10z m1005 6 c3
-5 1 -10 -4 -10 -6 0 -11 5 -11 10 0 6 2 10 4 10 3 0 8 -4 11 -10z m1561 -5
c15 -11 16 -14 4 -15 -9 0 -20 4 -25 9 -6 5 -23 11 -40 14 -28 4 -28 4 6 6 19
0 44 -6 55 -14z m-3796 -10 c10 -12 10 -15 -4 -15 -9 0 -16 7 -16 15 0 8 2 15
4 15 2 0 9 -7 16 -15z m1300 5 c0 -5 -2 -10 -4 -10 -3 0 -8 5 -11 10 -3 6 -1
10 4 10 6 0 11 -4 11 -10z m-2082 -29 c3 -18 0 -22 -12 -18 -9 4 -16 3 -16 -2
0 -5 11 -12 25 -15 21 -5 24 -10 15 -25 -10 -19 -25 -22 -46 -8 -6 3 -12 27
-12 52 -1 42 1 46 21 43 14 -2 23 -11 25 -27z m602 3 c0 -8 -4 -12 -10 -9 -5
3 -10 10 -10 16 0 5 5 9 10 9 6 0 10 -7 10 -16z m2510 6 c0 -5 -5 -10 -11 -10
-5 0 -7 5 -4 10 3 6 8 10 11 10 2 0 4 -4 4 -10z m885 -10 c3 -5 2 -10 -4 -10
-5 0 -13 5 -16 10 -3 6 -2 10 4 10 5 0 13 -4 16 -10z m1175 -10 c0 -5 -6 -10
-14 -10 -8 0 -18 5 -21 10 -3 6 3 10 14 10 12 0 21 -4 21 -10z m67 4 c-3 -3
-12 -4 -19 -1 -8 3 -5 6 6 6 11 1 17 -2 13 -5z m-1655 -61 c7 -9 7 -13 0 -13
-7 0 -10 -21 -8 -57 1 -32 -2 -64 -8 -72 -6 -7 -12 -39 -13 -70 -2 -31 -7 -69
-12 -86 -7 -22 -8 -6 -4 55 3 47 5 97 4 112 -1 15 4 30 9 33 8 5 7 11 -1 21
-6 8 -8 21 -4 31 4 10 9 27 10 38 0 11 3 31 5 45 l3 25 4 -25 c3 -14 10 -31
15 -37z m-442 16 c0 -18 -18 -9 -23 12 -4 16 -3 18 9 8 8 -6 14 -15 14 -20z
m-1022 -15 c-10 -10 -28 6 -28 24 0 15 1 15 17 -1 9 -9 14 -19 11 -23z m-248
16 c0 -5 -7 -10 -15 -10 -8 0 -15 5 -15 10 0 6 7 10 15 10 8 0 15 -4 15 -10z
m161 -3 c-1 -12 -15 -9 -19 4 -3 6 1 10 8 8 6 -3 11 -8 11 -12z m1034 -7 c3
-6 -1 -7 -9 -4 -18 7 -21 14 -7 14 6 0 13 -4 16 -10z m1511 -14 c17 -13 15
-14 -19 -6 -47 10 -59 20 -26 20 14 0 34 -6 45 -14z m-3781 -6 c3 -5 1 -10 -4
-10 -6 0 -11 5 -11 10 0 6 2 10 4 10 3 0 8 -4 11 -10z m95 -6 c0 -8 -4 -12
-10 -9 -5 3 -10 10 -10 16 0 5 5 9 10 9 6 0 10 -7 10 -16z m990 -33 c0 -11 -3
-11 -14 -1 -8 6 -12 18 -9 27 5 12 7 12 14 1 5 -7 9 -19 9 -27z m2790 29 c0
-5 -4 -10 -9 -10 -6 0 -13 5 -16 10 -3 6 1 10 9 10 9 0 16 -4 16 -10z m-2540
-33 c0 -18 -2 -19 -10 -7 -13 20 -13 43 0 35 6 -3 10 -16 10 -28z m1855 15
c-3 -3 -11 0 -18 7 -9 10 -8 11 6 5 10 -3 15 -9 12 -12z m1262 5 c3 -4 -15 -7
-41 -7 -26 0 -45 4 -42 9 6 9 72 8 83 -2z m-3197 -12 c0 -9 -6 -12 -15 -9 -8
4 -15 10 -15 15 0 5 7 9 15 9 8 0 15 -7 15 -15z m2302 -50 c-2 -15 0 -25 7
-25 9 0 9 -5 0 -22 -10 -18 -8 -24 11 -40 17 -14 19 -18 6 -18 -10 0 -16 -9
-16 -23 0 -13 -6 -29 -12 -36 -11 -10 -10 -12 2 -9 12 2 15 -12 15 -86 0 -59
-4 -94 -13 -102 -7 -8 -8 -15 -2 -19 5 -3 10 -16 9 -28 0 -12 1 -41 1 -65 1
-49 -8 -102 -18 -102 -25 1 -28 27 -26 230 0 118 -2 220 -7 225 -11 15 -20
167 -9 160 5 -3 12 0 15 5 12 20 43 -18 37 -45z m-4332 35 c11 -6 17 -17 14
-25 -4 -8 -10 -13 -14 -10 -5 3 -12 1 -15 -5 -10 -16 -35 8 -35 31 0 21 21 25
50 9z m2460 0 c13 -9 13 -11 0 -20 -24 -16 -40 -12 -40 10 0 22 16 26 40 10z
m-1660 -20 c0 -5 -7 -7 -15 -4 -8 4 -12 10 -9 15 6 11 24 2 24 -11z m81 7 c-1
-12 -15 -9 -19 4 -3 6 1 10 8 8 6 -3 11 -8 11 -12z m2289 3 c0 -5 -4 -10 -9
-10 -6 0 -13 5 -16 10 -3 6 1 10 9 10 9 0 16 -4 16 -10z m-2550 -26 c0 -8 -4
-12 -10 -9 -5 3 -10 13 -10 21 0 8 5 12 10 9 6 -3 10 -13 10 -21z m2480 16 c0
-5 -4 -10 -9 -10 -6 0 -13 5 -16 10 -3 6 1 10 9 10 9 0 16 -4 16 -10z m1330 6
c0 -9 -40 -13 -46 -5 -3 5 6 9 20 9 14 0 26 -2 26 -4z m487 -62 c-2 -3 -17 2
-33 11 -26 14 -27 15 -6 15 16 0 22 6 23 23 1 16 3 14 10 -12 6 -18 8 -35 6
-37z m-381 45 c25 -7 41 -16 37 -20 -9 -9 -82 7 -97 22 -13 12 5 12 60 -2z
m-2665 -12 c-1 -12 -15 -9 -19 4 -3 6 1 10 8 8 6 -3 11 -8 11 -12z m177 -5 c2
-7 -2 -10 -12 -6 -9 3 -16 11 -16 16 0 13 23 5 28 -10z m82 -3 c0 -6 -4 -7
-10 -4 -5 3 -10 11 -10 16 0 6 5 7 10 4 6 -3 10 -11 10 -16z m1000 -26 c0 -13
-3 -13 -15 -3 -8 7 -15 16 -15 21 0 5 7 6 15 3 8 -4 15 -13 15 -21z m61 14
c-1 -12 -15 -9 -19 4 -3 6 1 10 8 8 6 -3 11 -8 11 -12z m628 -13 c9 -9 -53 7
-63 17 -5 5 5 4 24 -1 18 -5 35 -12 39 -16z m-3791 -11 c3 -18 -2 -23 -20 -24
-18 -1 -17 -3 10 -10 35 -11 41 -23 16 -37 -26 -14 -54 -3 -54 22 0 12 -5 27
-11 33 -20 20 -2 45 28 41 20 -2 29 -9 31 -25z m872 6 c0 -5 -7 -9 -15 -9 -15
0 -20 12 -9 23 8 8 24 -1 24 -14z m1578 4 c6 -19 -28 -29 -39 -12 -5 8 -9 18
-9 22 0 13 43 3 48 -10z m-1663 -3 c3 -5 2 -10 -4 -10 -5 0 -13 5 -16 10 -3 6
-2 10 4 10 5 0 13 -4 16 -10z m3735 -15 c14 -2 29 -4 33 -4 5 -1 5 -6 2 -11
-3 -6 -17 -8 -31 -5 -13 3 -35 7 -49 10 -14 3 -25 10 -25 16 0 7 8 9 23 4 12
-4 33 -8 47 -10z m120 -15 c0 -5 -6 -10 -14 -10 -8 0 -18 5 -21 10 -3 6 3 10
14 10 12 0 21 -4 21 -10z m257 -5 c3 -9 3 -19 -1 -22 -8 -9 -37 18 -30 28 8
14 24 11 31 -6z m323 -4 c0 -6 -30 -7 -70 -2 -11 2 -10 4 4 10 21 8 66 3 66
-8z m-3960 -11 c0 -10 8 -24 18 -29 14 -9 15 -12 3 -20 -7 -5 -11 -14 -7 -20
13 -20 16 -82 5 -102 -8 -16 -7 -26 6 -45 8 -13 13 -24 10 -24 -4 0 1 -7 9
-16 9 -8 16 -21 16 -29 0 -7 5 -15 12 -17 7 -3 13 -15 14 -29 1 -13 6 -37 13
-52 6 -16 11 -39 11 -52 0 -13 5 -27 10 -30 7 -5 8 -11 1 -19 -7 -8 -4 -15 10
-24 10 -7 19 -19 19 -27 0 -8 4 -15 10 -15 5 0 7 -7 4 -15 -3 -8 2 -38 12 -67
10 -29 17 -57 16 -62 -2 -5 6 -28 18 -52 11 -24 20 -52 20 -61 0 -10 7 -37 16
-60 19 -49 19 -50 -15 -55 -21 -3 -25 3 -38 51 -7 30 -19 61 -25 68 -6 7 -9
16 -6 19 6 6 -23 120 -47 184 -9 25 -18 65 -18 90 -1 25 -7 50 -14 55 -19 17
-95 295 -80 295 6 0 3 8 -5 18 -8 9 -18 31 -21 49 -5 27 -4 31 11 27 11 -3 10
0 -5 12 -27 19 -30 36 -7 27 14 -5 16 -2 10 20 -4 16 -2 27 4 27 5 0 10 -9 10
-20z m1865 10 c3 -5 2 -10 -4 -10 -5 0 -13 5 -16 10 -3 6 -2 10 4 10 5 0 13
-4 16 -10z m65 0 c0 -5 -4 -10 -10 -10 -5 0 -10 5 -10 10 0 6 5 10 10 10 6 0
10 -4 10 -10z m-1325 -20 c3 -5 1 -10 -4 -10 -6 0 -11 5 -11 10 0 6 2 10 4 10
3 0 8 -4 11 -10z m180 0 c3 -5 -1 -10 -9 -10 -9 0 -16 5 -16 10 0 6 4 10 9 10
6 0 13 -4 16 -10z m85 0 c0 -5 -4 -10 -9 -10 -6 0 -13 5 -16 10 -3 6 1 10 9
10 9 0 16 -4 16 -10z m350 -42 c0 -14 -48 -9 -53 6 -3 8 -3 16 0 19 7 8 53
-14 53 -25z m2030 22 c24 -8 24 -8 -5 -9 -16 0 -37 4 -45 9 -12 8 -11 10 5 9
11 -1 31 -5 45 -9z m120 -10 c0 -5 -4 -10 -10 -10 -5 0 -10 5 -10 10 0 6 5 10
10 10 6 0 10 -4 10 -10z m560 -11 c-36 -8 -60 -2 -41 10 6 4 26 5 44 2 l32 -5
-35 -7z m-290 1 c0 -5 -4 -10 -10 -10 -5 0 -10 5 -10 10 0 6 5 10 10 10 6 0
10 -4 10 -10z m-4275 -9 c3 -5 1 -12 -5 -16 -5 -3 -10 1 -10 9 0 18 6 21 15 7z
m2610 -11 c3 -5 1 -10 -4 -10 -6 0 -11 5 -11 10 0 6 2 10 4 10 3 0 8 -4 11
-10z m-751 -31 c3 -17 6 -43 5 -58 l0 -26 -11 25 c-6 14 -17 37 -24 52 -12 28
-9 38 11 38 7 0 15 -14 19 -31z m-2454 1 c13 -9 11 -13 -10 -30 -19 -15 -21
-20 -9 -20 20 0 34 -29 20 -43 -12 -12 -31 0 -31 21 0 10 -7 28 -16 40 -8 12
-12 27 -9 32 8 13 36 13 55 0z m4435 -20 c8 -13 -5 -13 -25 0 -13 8 -13 10 2
10 9 0 20 -4 23 -10z m295 -52 c0 -62 -5 -60 -14 5 -5 31 -4 47 3 47 7 0 11
-22 11 -52z m147 -15 c1 -56 1 -57 -7 -18 -12 53 -12 87 -2 81 5 -3 9 -31 9
-63z m82 -23 c10 -79 17 -199 36 -605 3 -71 2 -100 -4 -83 -5 15 -12 96 -15
180 -14 340 -25 486 -42 566 -4 19 -3 32 3 32 6 0 16 -40 22 -90z m217 71 c-5
-8 -56 -3 -56 5 0 2 14 4 31 4 16 0 28 -4 25 -9z m-2696 -76 c0 -8 -2 -15 -4
-15 -2 0 -6 7 -10 15 -3 8 -1 15 4 15 6 0 10 -7 10 -15z m40 -55 c12 -16 23
-38 25 -49 2 -11 8 -29 14 -40 15 -28 14 -31 -14 -31 -21 0 -27 8 -45 66 -11
36 -20 70 -20 75 0 18 19 8 40 -21z m911 -23 c-8 -8 -11 -5 -11 9 0 27 14 41
18 19 2 -9 -1 -22 -7 -28z m1306 -44 c-3 -10 -5 -2 -5 17 0 19 2 27 5 18 2
-10 2 -26 0 -35z m-3803 -2 c-6 -6 -24 19 -24 34 1 6 7 1 15 -9 8 -11 12 -22
9 -25z m2483 -8 c-3 -10 -5 -4 -5 12 0 17 2 24 5 18 2 -7 2 -21 0 -30z m1333
-58 c0 -8 -4 -17 -10 -20 -6 -4 -10 5 -10 20 0 15 4 24 10 20 6 -3 10 -12 10
-20z m147 -27 c-2 -13 -4 -5 -4 17 -1 22 1 32 4 23 2 -10 2 -28 0 -40z m-4857
38 c0 -3 -4 -8 -10 -11 -5 -3 -10 -1 -10 4 0 6 5 11 10 11 6 0 10 -2 10 -4z
m4707 -98 c-2 -13 -4 -5 -4 17 -1 22 1 32 4 23 2 -10 2 -28 0 -40z m150 10
c-3 -8 -6 -5 -6 6 -1 11 2 17 5 13 3 -3 4 -12 1 -19z m-1501 -35 c-6 -14 -9
-15 -16 -4 -11 19 -1 46 13 32 5 -5 7 -18 3 -28z m-1433 -46 c-8 -13 -23 3
-23 26 0 20 0 20 14 2 8 -11 12 -23 9 -28z m2802 -107 c3 -74 8 -154 11 -177
4 -29 3 -43 -5 -43 -6 0 -11 6 -12 13 -6 94 -8 138 -9 227 -2 118 -2 125 4
119 3 -3 7 -65 11 -139z m-2635 120 c0 -5 -4 -10 -9 -10 -6 0 -13 5 -16 10 -3
6 1 10 9 10 9 0 16 -4 16 -10z m85 0 c-3 -5 -10 -10 -16 -10 -5 0 -9 5 -9 10
0 6 7 10 16 10 8 0 12 -4 9 -10z m381 -8 c-15 -16 -46 -10 -46 8 0 6 14 9 30
8 26 -2 28 -4 16 -16z m791 -48 c-3 -36 -8 -69 -11 -72 -8 -7 -8 102 0 122 12
32 16 14 11 -50z m-2387 52 c0 -11 -19 -15 -25 -6 -3 5 1 10 9 10 9 0 16 -2
16 -4z m-870 -78 c0 -4 -13 -8 -30 -8 -20 0 -30 5 -30 15 0 8 7 15 16 15 9 0
12 5 8 13 -4 6 2 3 14 -7 12 -11 22 -23 22 -28z m3800 28 c0 -8 -4 -18 -10
-21 -5 -3 -10 3 -10 14 0 12 5 21 10 21 6 0 10 -6 10 -14z m980 -21 c0 -8 -4
-15 -10 -15 -5 0 -10 7 -10 15 0 8 5 15 10 15 6 0 10 -7 10 -15z m-2320 -6 c0
-5 4 -8 9 -5 5 4 7 -4 4 -15 -6 -21 -7 -21 -20 -4 -16 22 -17 35 -3 35 6 0 10
-5 10 -11z m1327 -56 c-3 -10 -5 -4 -5 12 0 17 2 24 5 18 2 -7 2 -21 0 -30z
m990 -5 c-3 -8 -6 -5 -6 6 -1 11 2 17 5 13 3 -3 4 -12 1 -19z m-2904 -13 c4
-8 2 -17 -3 -20 -6 -4 -10 3 -10 14 0 25 6 27 13 6z m607 -5 c0 -13 5 -18 15
-14 10 4 15 0 15 -11 0 -9 -4 -13 -10 -10 -5 3 -10 1 -10 -6 0 -20 -29 24 -30
44 0 9 5 17 10 17 6 0 10 -9 10 -20z m770 -31 c0 -24 -23 -21 -28 4 -2 10 3
17 12 17 10 0 16 -9 16 -21z m-1340 -52 c0 -21 -25 2 -32 29 l-7 29 19 -25
c11 -14 20 -29 20 -33z m-974 -15 c-9 -8 -26 10 -26 26 1 15 2 15 15 -2 8 -11
13 -21 11 -24z m1134 4 c0 -5 -7 -3 -15 4 -8 7 -12 17 -9 22 7 10 24 -9 24
-26z m79 17 c5 -10 9 -20 9 -23 0 -3 5 -16 10 -30 22 -60 24 -72 11 -68 -8 3
-14 11 -14 19 0 25 -26 89 -36 89 -5 0 -9 7 -9 15 0 20 17 19 29 -2z m371 3
c0 -2 3 -11 6 -19 4 -11 -1 -13 -20 -10 -31 6 -35 33 -6 33 11 0 20 -2 20 -4z
m720 -42 c0 -32 -4 -44 -12 -41 -7 2 -13 9 -12 15 1 7 2 26 3 42 2 48 21 34
21 -16z m-2400 26 c0 -5 -2 -10 -4 -10 -3 0 -8 5 -11 10 -3 6 -1 10 4 10 6 0
11 -4 11 -10z m-180 -10 c0 -5 -4 -10 -10 -10 -5 0 -10 5 -10 10 0 6 5 10 10
10 6 0 10 -4 10 -10z m1260 -36 c0 -8 -4 -12 -10 -9 -5 3 -10 13 -10 21 0 8 5
12 10 9 6 -3 10 -13 10 -21z m2876 -21 c-6 -14 -9 -15 -16 -4 -11 19 -1 46 13
32 5 -5 7 -18 3 -28z m-1406 -1 c47 -48 63 -133 32 -172 -15 -18 -24 -21 -49
-16 -17 4 -38 15 -47 25 -22 25 -34 154 -16 176 19 23 48 18 80 -13z m376 1
c-10 -10 -19 5 -10 18 6 11 8 11 12 0 2 -7 1 -15 -2 -18z m768 18 c3 -5 -1
-11 -9 -15 -15 -6 -29 7 -18 18 9 9 21 8 27 -3z m-1984 -33 c32 -35 31 -48 -5
-48 -27 0 -37 13 -42 52 -4 37 11 35 47 -4z m1865 22 c-28 -12 -45 -12 -45 0
0 6 15 10 33 9 27 0 29 -2 12 -9z m660 0 c3 -5 -3 -10 -14 -10 -12 0 -21 5
-21 10 0 6 6 10 14 10 8 0 18 -4 21 -10z m-2975 -36 c0 -8 -4 -12 -10 -9 -5 3
-10 13 -10 21 0 8 5 12 10 9 6 -3 10 -13 10 -21z m-1138 -9 c0 -5 -5 -11 -11
-13 -6 -2 -11 4 -11 13 0 9 5 15 11 13 6 -2 11 -8 11 -13z m978 5 c0 -5 -4
-10 -10 -10 -5 0 -10 5 -10 10 0 6 5 10 10 10 6 0 10 -4 10 -10z m-1250 -33
c0 -5 -4 -5 -10 -2 -5 3 -10 14 -10 23 0 15 2 15 10 2 5 -8 10 -19 10 -23z
m175 23 c3 -5 1 -10 -4 -10 -6 0 -11 5 -11 10 0 6 2 10 4 10 3 0 8 -4 11 -10z
m3794 -35 l0 -20 -9 20 c-5 11 -9 27 -9 35 -1 13 0 13 9 0 5 -8 9 -24 9 -35z
m-3302 -21 c-2 -2 -12 -2 -21 2 -15 6 -15 7 1 20 15 11 19 10 21 -2 2 -9 2
-18 -1 -20z m1223 9 c2 -2 -1 -8 -9 -12 -9 -6 -7 -10 8 -14 17 -4 20 -10 15
-35 -3 -17 -1 -32 5 -36 15 -9 2 -36 -18 -36 -14 -1 -13 -3 3 -15 24 -19 30
-85 7 -86 -12 0 -10 -3 5 -11 17 -8 21 -18 20 -51 -1 -23 -9 -52 -18 -65 l-16
-24 -6 29 c-4 15 -9 39 -12 53 -3 14 -7 45 -10 70 -9 89 -13 123 -18 128 -3 2
-1 12 4 22 5 10 6 20 2 24 -3 4 -7 23 -8 42 -1 30 2 34 20 28 12 -4 23 -8 26
-11z m664 -45 c6 -42 5 -47 -9 -41 -13 4 -16 14 -12 39 3 19 1 36 -4 40 -5 3
-6 10 -3 16 10 16 21 -4 28 -54z m532 19 c2 -30 1 -31 -12 -13 -15 21 -18 39
-7 49 10 11 17 -1 19 -36z m221 17 c-3 -3 -12 -4 -19 -1 -8 3 -5 6 6 6 11 1
17 -2 13 -5z m-2034 -85 c2 -30 6 -59 8 -65 2 -7 0 -13 -6 -14 -12 -3 -25 67
-18 96 2 12 0 25 -6 28 -5 4 -7 14 -4 22 10 26 22 -5 26 -67z m1562 63 c-3 -3
-11 0 -18 7 -9 10 -8 11 6 5 10 -3 15 -9 12 -12z m1040 0 c-3 -3 -11 0 -18 7
-9 10 -8 11 6 5 10 -3 15 -9 12 -12z m108 -25 c-9 -16 -26 12 -18 30 7 17 8
17 15 -2 4 -11 5 -24 3 -28z m-3295 -3 c2 -16 7 -33 12 -38 5 -5 5 -17 -1 -28
-7 -14 -7 -23 1 -33 16 -19 4 -35 -26 -35 -23 0 -29 9 -25 38 1 8 -3 20 -10
28 -6 7 -9 21 -5 30 3 8 1 24 -4 35 -15 26 -5 38 28 35 22 -3 28 -9 30 -32z
m742 20 c0 -8 -4 -12 -10 -9 -5 3 -10 10 -10 16 0 5 5 9 10 9 6 0 10 -7 10
-16z m92 -21 c0 -21 0 -50 -1 -65 -1 -14 2 -29 8 -32 5 -3 7 -16 3 -28 -5 -21
-5 -21 -15 3 -5 13 -11 47 -12 74 -1 28 -6 58 -10 68 -5 12 -3 17 9 17 12 0
16 -10 18 -37z m2608 11 c0 -8 -4 -12 -10 -9 -5 3 -10 10 -10 16 0 5 5 9 10 9
6 0 10 -7 10 -16z m-3930 -4 c0 -5 -4 -10 -10 -10 -5 0 -10 5 -10 10 0 6 5 10
10 10 6 0 10 -4 10 -10z m90 -9 c0 -10 3 -34 6 -52 5 -26 4 -31 -5 -23 -14 13
-22 94 -10 94 5 0 9 -8 9 -19z m-266 -12 c-8 -14 -24 -10 -24 6 0 9 6 12 15 9
8 -4 12 -10 9 -15z m1416 -38 c0 -11 -3 -11 -14 -1 -8 6 -12 18 -9 27 5 12 7
12 14 1 5 -7 9 -19 9 -27z m1670 -105 c6 -6 10 -18 10 -27 0 -10 5 -30 12 -46
6 -15 13 -37 14 -48 1 -11 5 -40 8 -65 6 -40 4 -38 -14 20 -10 36 -19 74 -20
85 0 11 -6 29 -13 40 -27 41 -44 141 -30 175 4 8 10 -16 15 -55 5 -38 13 -74
18 -79z m-2900 93 c0 -6 -4 -7 -10 -4 -5 3 -10 11 -10 16 0 6 5 7 10 4 6 -3
10 -11 10 -16z m-180 -10 c0 -11 -4 -17 -10 -14 -5 3 -10 13 -10 21 0 8 5 14
10 14 6 0 10 -9 10 -21z m2530 1 c0 -5 -7 -10 -15 -10 -8 0 -15 5 -15 10 0 6
7 10 15 10 8 0 15 -4 15 -10z m-2250 -46 c0 -8 -4 -12 -10 -9 -5 3 -10 13 -10
21 0 8 5 12 10 9 6 -3 10 -13 10 -21z m1140 16 c0 -5 -4 -10 -9 -10 -6 0 -13
5 -16 10 -3 6 1 10 9 10 9 0 16 -4 16 -10z m1567 -37 c15 -50 8 -55 -11 -8
-18 43 -19 45 -8 45 4 0 12 -17 19 -37z m-2797 17 c0 -5 -4 -10 -10 -10 -5 0
-10 5 -10 10 0 6 5 10 10 10 6 0 10 -4 10 -10z m2344 -61 c-10 -16 -24 -9 -24
12 0 18 2 19 15 9 8 -7 12 -16 9 -21z m-1889 11 c-4 -6 7 -15 24 -21 17 -6 28
-15 25 -21 -3 -5 -6 -24 -6 -43 0 -24 -5 -35 -19 -38 -10 -3 -19 0 -20 6 0 7
-3 21 -5 32 -14 71 -15 95 -5 95 7 0 9 -5 6 -10z m2195 0 c0 -5 -2 -10 -4 -10
-3 0 -8 5 -11 10 -3 6 -1 10 4 10 6 0 11 -4 11 -10z m-1573 -36 c-9 -9 -28 6
-21 18 4 6 10 6 17 -1 6 -6 8 -13 4 -17z m160 0 c-9 -9 -28 6 -21 18 4 6 10 6
17 -1 6 -6 8 -13 4 -17z m87 2 c-3 -8 -1 -30 4 -50 6 -20 7 -36 3 -36 -4 0
-12 23 -17 50 -8 40 -8 50 2 50 8 0 11 -6 8 -14z m-1219 -6 c3 -5 -1 -10 -9
-10 -9 0 -16 5 -16 10 0 6 4 10 9 10 6 0 13 -4 16 -10z m2222 -42 c-3 -8 -6
-5 -6 6 -1 11 2 17 5 13 3 -3 4 -12 1 -19z m507 -3 c3 -8 1 -15 -4 -15 -6 0
-10 7 -10 15 0 8 2 15 4 15 2 0 6 -7 10 -15z m-44 -20 c0 -8 -2 -15 -4 -15 -2
0 -6 7 -10 15 -3 8 -1 15 4 15 6 0 10 -7 10 -15z m-1070 -45 c0 -5 -4 -10 -10
-10 -5 0 -10 5 -10 10 0 6 5 10 10 10 6 0 10 -4 10 -10z m630 -141 c0 -6 -4
-7 -10 -4 -5 3 -10 11 -10 16 0 6 5 7 10 4 6 -3 10 -11 10 -16z"/>
<path d="M2985 7860 c3 -5 8 -10 11 -10 2 0 4 5 4 10 0 6 -5 10 -11 10 -5 0
-7 -4 -4 -10z"/>
<path d="M2370 7314 c0 -8 5 -12 10 -9 6 4 8 11 5 16 -9 14 -15 11 -15 -7z"/>
<path d="M7710 7400 c0 -5 5 -10 10 -10 6 0 10 5 10 10 0 6 -4 10 -10 10 -5 0
-10 -4 -10 -10z"/>
<path d="M1968 6923 c7 -3 16 -2 19 1 4 3 -2 6 -13 5 -11 0 -14 -3 -6 -6z"/>
<path d="M2000 6911 c0 -6 -17 -11 -39 -11 -24 0 -44 -6 -52 -17 -12 -15 -12
-16 4 -10 19 7 23 -3 7 -19 -7 -7 -2 -19 16 -38 15 -15 30 -23 33 -18 11 15
51 12 51 -4 0 -11 -6 -14 -22 -9 -20 5 -21 5 -5 -5 10 -7 35 -9 60 -5 39 6 42
9 44 41 2 19 -2 34 -7 34 -6 0 -13 0 -17 0 -5 0 -8 -6 -8 -12 0 -7 -10 -14
-22 -14 -17 -1 -20 2 -14 15 10 21 -1 73 -16 79 -7 2 -13 -1 -13 -7z"/>
<path d="M2348 6553 c7 -3 16 -2 19 1 4 3 -2 6 -13 5 -11 0 -14 -3 -6 -6z"/>
<path d="M2380 6530 c0 -5 5 -10 10 -10 6 0 10 5 10 10 0 6 -4 10 -10 10 -5 0
-10 -4 -10 -10z"/>
<path d="M2186 6444 c-5 -12 -2 -15 10 -10 8 3 18 6 20 6 2 0 4 5 4 10 0 16
-27 11 -34 -6z"/>
<path d="M2295 6440 c-3 -5 1 -10 9 -10 9 0 16 5 16 10 0 6 -4 10 -9 10 -6 0
-13 -4 -16 -10z"/>
<path d="M2245 6370 c3 -5 10 -10 16 -10 5 0 9 5 9 10 0 6 -7 10 -16 10 -8 0
-12 -4 -9 -10z"/>
<path d="M8215 6900 c-3 -5 -1 -10 4 -10 6 0 11 5 11 10 0 6 -2 10 -4 10 -3 0
-8 -4 -11 -10z"/>
<path d="M8165 6870 c28 -12 37 -12 30 0 -3 6 -16 10 -28 9 -21 0 -21 -1 -2
-9z"/>
<path d="M8207 6853 c-4 -3 -7 -11 -7 -17 0 -6 5 -5 12 2 6 6 9 14 7 17 -3 3
-9 2 -12 -2z"/>
<path d="M8140 6840 c-9 -6 -10 -10 -3 -10 6 0 15 5 18 10 8 12 4 12 -15 0z"/>
<path d="M2528 6178 c9 -9 15 -9 24 0 9 9 7 12 -12 12 -19 0 -21 -3 -12 -12z"/>
<path d="M8860 6050 c0 -5 5 -10 10 -10 6 0 10 5 10 10 0 6 -4 10 -10 10 -5 0
-10 -4 -10 -10z"/>
<path d="M8765 5990 c-3 -5 -2 -10 4 -10 5 0 13 5 16 10 3 6 2 10 -4 10 -5 0
-13 -4 -16 -10z"/>
<path d="M8778 5943 c7 -3 16 -2 19 1 4 3 -2 6 -13 5 -11 0 -14 -3 -6 -6z"/>
<path d="M8768 5913 c6 -2 18 -2 25 0 6 3 1 5 -13 5 -14 0 -19 -2 -12 -5z"/>
<path d="M8100 5750 c0 -5 5 -10 11 -10 5 0 7 5 4 10 -3 6 -8 10 -11 10 -2 0
-4 -4 -4 -10z"/>
<path d="M8136 5721 c-3 -5 1 -11 9 -15 9 -3 15 0 15 9 0 16 -16 20 -24 6z"/>
<path d="M8320 5719 c0 -5 5 -7 10 -4 6 3 10 8 10 11 0 2 -4 4 -10 4 -5 0 -10
-5 -10 -11z"/>
<path d="M8355 5630 c3 -5 8 -10 11 -10 2 0 4 5 4 10 0 6 -5 10 -11 10 -5 0
-7 -4 -4 -10z"/>
<path d="M8217 5610 c-6 -22 17 -48 28 -30 3 5 21 11 38 11 29 2 30 2 5 6 -14
2 -32 11 -38 19 -17 19 -27 18 -33 -6z"/>
<path d="M8360 5600 c0 -5 5 -10 10 -10 6 0 10 5 10 10 0 6 -4 10 -10 10 -5 0
-10 -4 -10 -10z"/>
<path d="M8325 5580 c-3 -5 -2 -10 4 -10 5 0 13 5 16 10 3 6 2 10 -4 10 -5 0
-13 -4 -16 -10z"/>
<path d="M8416 5345 c4 -8 10 -12 15 -9 11 6 2 24 -11 24 -5 0 -7 -7 -4 -15z"/>
<path d="M8720 5349 c0 -5 9 -9 20 -9 11 0 20 2 20 4 0 2 -9 6 -20 9 -11 3
-20 1 -20 -4z"/>
<path d="M8370 5305 c-17 -21 -5 -31 15 -12 8 9 15 18 15 21 0 11 -18 6 -30
-9z"/>
<path d="M8395 5050 c3 -5 8 -10 11 -10 2 0 4 5 4 10 0 6 -5 10 -11 10 -5 0
-7 -4 -4 -10z"/>
<path d="M816 4741 c-5 -7 -3 -18 3 -24 14 -14 20 -6 11 17 -5 15 -9 16 -14 7z"/>
<path d="M7550 4410 c0 -5 5 -10 10 -10 6 0 10 5 10 10 0 6 -4 10 -10 10 -5 0
-10 -4 -10 -10z"/>
<path d="M7545 4360 c3 -5 8 -10 11 -10 2 0 4 5 4 10 0 6 -5 10 -11 10 -5 0
-7 -4 -4 -10z"/>
<path d="M2578 3617 c-7 -7 -30 -25 -50 -41 -40 -30 -50 -50 -21 -39 23 9 72
53 84 76 11 20 6 22 -13 4z"/>
<path d="M2450 3592 c-13 -2 -34 -11 -45 -19 -19 -14 -17 -15 20 -8 37 6 65
20 54 28 -2 1 -15 1 -29 -1z"/>
<path d="M2413 3505 c-29 -13 -53 -29 -53 -34 0 -20 65 1 94 30 34 35 27 35
-41 4z"/>
<path d="M2277 3513 c-9 -2 -15 -8 -12 -12 6 -11 55 -1 55 10 0 9 -13 10 -43
2z"/>
<path d="M1507 3056 c-3 -7 -1 -18 5 -24 6 -6 8 -18 4 -26 -8 -22 -4 -30 17
-33 21 -3 22 13 2 61 -17 40 -20 43 -28 22z"/>
<path d="M1333 3044 c-18 -9 -33 -20 -33 -25 0 -11 31 1 48 18 8 7 18 10 24 7
7 -4 8 -2 4 4 -9 14 -4 15 -43 -4z"/>
<path d="M783 2813 c9 -2 25 -2 35 0 9 3 1 5 -18 5 -19 0 -27 -2 -17 -5z"/>
<path d="M4150 3076 c0 -10 9 -16 21 -16 24 0 21 23 -4 28 -10 2 -17 -3 -17
-12z"/>
<path d="M4050 3041 c0 -15 42 -41 67 -41 13 0 23 5 23 10 0 6 -7 10 -15 10
-9 0 -29 7 -45 15 -17 9 -30 11 -30 6z"/>
<path d="M6500 2558 c0 -8 7 -23 15 -34 14 -19 14 -19 15 2 0 12 -7 27 -15 34
-12 10 -15 10 -15 -2z"/>
<path d="M6001 2064 c0 -11 3 -14 6 -6 3 7 2 16 -1 19 -3 4 -6 -2 -5 -13z"/>
<path d="M1232 7548 c2 -6 10 -14 16 -16 7 -2 10 2 6 12 -7 18 -28 22 -22 4z"/>
<path d="M8230 7538 c0 -3 12 -18 26 -34 17 -19 22 -22 16 -8 -10 20 -42 52
-42 42z"/>
<path d="M5570 6461 c-8 -6 -54 -10 -101 -10 -95 1 -151 -7 -190 -27 -15 -7
-29 -10 -33 -7 -3 3 -15 -2 -27 -13 -11 -10 -31 -18 -42 -16 -32 3 -47 -10
-62 -54 -16 -47 -50 -63 -141 -63 -99 -1 -171 31 -266 119 -45 41 -121 53
-335 55 -106 0 -193 -3 -193 -7 0 -4 -8 -8 -17 -8 -14 0 -15 2 -4 9 9 6 4 10
-19 13 -21 3 -34 0 -37 -8 -3 -8 -21 -17 -41 -20 -21 -4 -43 -15 -50 -25 -7
-10 -27 -22 -44 -27 -47 -12 -51 -37 -5 -29 20 3 39 2 42 -3 4 -7 -86 -25
-245 -48 -38 -5 -88 -6 -120 -1 -30 5 -89 11 -130 15 -41 4 -80 11 -86 16 -16
12 -42 0 -49 -23 -4 -10 -13 -19 -21 -19 -17 0 -19 -26 -1 -37 6 -4 21 -6 33
-5 12 2 34 -8 50 -21 28 -24 63 -33 154 -41 70 -7 143 -26 161 -42 13 -12 17
-34 17 -96 1 -58 5 -85 16 -97 9 -10 16 -26 16 -37 1 -30 47 -154 66 -175 9
-10 37 -25 63 -33 52 -17 212 -46 254 -46 15 0 27 -4 27 -10 0 -5 -13 -10 -30
-10 -16 0 -30 -4 -30 -9 0 -10 97 -23 172 -23 26 0 51 -4 54 -9 3 -5 14 -9 24
-9 10 0 22 -4 25 -10 7 -11 -14 -55 -22 -46 -3 3 -21 -14 -40 -37 -20 -23 -40
-44 -47 -46 -6 -2 -20 -13 -31 -25 -45 -48 -171 -127 -190 -120 -11 5 -14 2
-9 -10 4 -10 1 -16 -9 -16 -11 0 -13 -6 -9 -22 4 -15 2 -19 -7 -14 -8 5 -14 0
-18 -13 -3 -11 -14 -23 -24 -26 -12 -4 -22 -19 -26 -36 -3 -16 -11 -29 -17
-29 -8 0 -8 -3 0 -8 6 -4 14 -16 19 -27 8 -19 9 -19 12 3 5 26 23 30 23 4 0
-10 3 -22 7 -26 4 -4 8 -13 9 -19 2 -25 17 -57 25 -57 5 0 9 -6 9 -14 0 -8 7
-16 15 -20 8 -3 12 -12 9 -21 -4 -9 0 -23 9 -33 8 -9 23 -36 32 -58 11 -28 27
-48 50 -60 34 -18 35 -18 58 4 24 23 47 29 47 13 0 -5 -6 -12 -12 -15 -7 -3
-1 -3 15 0 16 4 27 2 27 -5 0 -6 7 -11 15 -11 7 0 18 -8 24 -17 8 -15 13 -16
30 -6 11 7 23 9 26 4 3 -5 20 -13 38 -16 17 -4 38 -12 44 -17 7 -6 29 -7 50
-3 21 4 101 8 178 9 137 3 161 5 275 21 30 5 69 9 85 11 47 4 160 23 179 30
13 5 14 10 5 20 -9 11 -14 11 -33 -1 -18 -12 -28 -12 -52 -3 -25 9 -35 8 -59
-8 -22 -15 -43 -18 -102 -15 -46 2 -79 -2 -88 -9 -10 -8 -36 -10 -82 -6 -37 4
-89 8 -114 9 -25 1 -53 8 -62 15 -14 12 -20 10 -40 -14 -28 -32 -49 -25 -75
26 -18 37 -42 51 -42 26 0 -24 -19 -19 -29 6 -13 37 -2 60 25 54 21 -6 24 -3
24 19 0 51 55 40 90 -18 11 -18 20 -27 21 -22 7 94 43 122 94 71 l24 -24 17
25 c15 24 20 25 71 20 30 -3 65 -13 78 -21 19 -12 24 -13 28 -2 6 14 87 46
118 46 9 0 22 -7 29 -15 11 -13 15 -12 37 5 33 25 54 25 81 0 12 -12 22 -16
22 -10 0 6 12 15 26 20 28 11 64 -2 64 -24 0 -7 10 -12 23 -12 20 1 22 -4 21
-42 0 -25 -7 -47 -16 -55 -26 -21 -30 -47 -7 -47 23 0 94 35 105 51 3 6 33 28
66 49 52 34 62 37 88 28 17 -5 30 -14 30 -19 0 -5 9 -9 20 -9 15 0 20 7 20 25
0 13 8 29 18 34 16 9 15 13 -10 58 -19 33 -33 48 -48 48 -11 0 -24 6 -29 14
-6 9 -11 10 -15 2 -4 -6 -15 -7 -29 -2 -27 11 -79 3 -89 -13 -4 -6 -5 -18 -2
-27 7 -25 -36 -27 -156 -7 -58 9 -142 18 -187 20 -46 2 -83 6 -83 9 0 4 -10 9
-22 12 -22 6 -22 5 -5 -8 17 -13 16 -14 -15 -17 -18 -2 -45 1 -60 5 -19 6 -37
4 -58 -6 -16 -9 -30 -11 -30 -6 0 6 -37 8 -89 5 -49 -2 -104 -1 -122 3 -19 4
-44 3 -57 -2 -17 -8 -27 -6 -45 10 -31 28 -57 35 -75 21 -13 -11 -15 -10 -9 5
4 10 3 16 -1 13 -15 -9 -43 34 -37 55 4 10 11 19 16 19 5 0 9 5 9 10 0 6 -6
10 -13 10 -20 0 -51 37 -38 45 6 3 16 3 23 -1 7 -4 8 -3 4 5 -11 17 12 41 38
40 11 0 15 -3 8 -6 -9 -3 -7 -10 9 -24 12 -10 26 -19 31 -19 4 0 8 -6 8 -12 0
-7 4 -19 9 -27 7 -11 12 -11 31 2 17 12 28 13 42 6 11 -6 31 -9 46 -8 15 2 33
0 40 -4 7 -5 12 -3 12 4 0 7 9 2 20 -11 12 -13 18 -31 15 -41 -7 -22 18 -36
65 -35 19 1 38 -3 41 -7 3 -5 21 -9 40 -9 19 0 40 -5 47 -11 10 -8 16 -7 24 4
7 11 11 11 15 2 2 -7 9 -13 14 -13 6 0 7 5 4 10 -3 6 3 10 15 10 12 0 18 5 15
10 -3 6 5 10 19 10 13 0 37 11 53 23 15 13 37 29 48 36 14 9 15 11 3 7 -10 -3
-20 -1 -23 4 -4 6 3 10 14 10 20 0 22 5 25 55 1 16 7 19 34 17 24 -2 32 1 32
12 0 9 4 16 8 16 4 0 8 12 7 27 0 17 7 31 20 38 51 28 84 52 78 58 -9 10 -53
9 -53 -1 0 -4 -14 -16 -31 -26 -17 -10 -37 -34 -45 -52 -14 -33 -24 -41 -37
-27 -4 3 -24 7 -44 8 -21 0 -51 7 -68 14 -16 8 -41 14 -55 15 -14 2 -29 4 -35
6 -5 2 -27 0 -47 -4 -24 -5 -57 -3 -90 5 -29 8 -57 14 -63 14 -5 0 -12 3 -15
6 -11 13 -123 49 -154 49 -27 0 -36 5 -45 28 -27 66 32 142 111 142 15 0 28 5
28 11 0 5 5 7 10 4 6 -3 10 1 10 9 0 11 -9 16 -29 16 -52 0 -50 32 6 94 44 50
100 148 152 266 34 77 52 93 107 93 44 0 51 -3 88 -45 25 -27 57 -81 81 -139
22 -52 58 -121 81 -155 23 -33 44 -70 48 -81 3 -10 19 -29 35 -41 36 -27 65
-108 58 -163 -3 -22 -1 -37 4 -33 5 3 9 -11 9 -30 0 -30 4 -36 21 -36 12 0 28
-8 36 -17 14 -17 14 -17 9 0 -3 9 -1 17 4 17 6 0 10 -8 10 -18 0 -11 11 -24
25 -30 14 -7 30 -23 35 -36 5 -13 18 -27 30 -31 26 -8 40 3 20 15 -8 6 -11 10
-6 10 5 0 27 -20 50 -45 24 -25 47 -45 52 -45 5 -1 20 -15 34 -32 14 -18 36
-43 48 -56 16 -16 20 -27 13 -31 -8 -5 -6 -13 4 -27 23 -29 37 0 31 64 -2 29
0 52 5 52 14 0 -1 53 -18 63 -7 5 -11 12 -8 18 4 5 -1 16 -9 25 -9 8 -16 22
-16 31 0 16 -46 64 -105 109 -20 15 -32 31 -28 40 3 8 0 14 -6 14 -15 0 -111
101 -111 117 0 7 6 13 14 13 7 0 19 7 26 14 10 13 4 17 -37 29 l-48 14 135 5
c162 7 389 49 437 81 39 26 67 86 78 163 18 139 36 237 47 253 7 12 26 25 41
31 24 8 28 14 23 32 -3 13 -6 30 -6 39 0 40 -22 48 -167 65 -79 8 -148 13
-155 11 -7 -3 -1 -6 14 -6 14 -1 49 -6 76 -12 74 -17 88 -51 113 -264 10 -89
-1 -205 -23 -229 -4 -6 -8 -18 -8 -27 0 -53 -126 -88 -374 -105 -103 -7 -288
10 -340 31 -68 29 -118 99 -172 242 -13 35 -24 73 -24 86 0 19 3 18 20 -11 11
-18 20 -39 20 -47 0 -8 4 -15 9 -15 6 0 6 12 0 32 -5 17 -6 34 -4 37 8 8 36
-24 39 -45 2 -12 17 -22 47 -30 24 -6 73 -25 109 -42 110 -52 208 -80 288 -81
39 -1 72 1 72 4 0 7 -62 30 -72 27 -5 -1 -8 2 -8 8 0 6 18 10 41 10 l40 0 -17
29 c-14 24 -26 30 -66 35 -28 4 -57 11 -66 16 -10 5 -34 17 -55 26 -21 9 -36
18 -34 20 1 2 48 4 102 5 55 1 105 4 110 8 6 4 26 12 46 19 48 16 84 1 99 -42
10 -29 12 -30 22 -12 8 15 8 21 0 24 -17 5 -15 22 2 22 15 0 28 36 32 83 2 23
-8 39 -44 73 -25 24 -51 44 -58 44 -7 0 -34 11 -61 25 -41 21 -66 25 -167 29
-65 3 -120 7 -122 9 -5 4 244 25 326 27 76 2 77 10 1 10 -39 0 -60 4 -56 10 3
6 23 10 43 11 33 0 35 1 14 10 l-24 9 22 36 c12 19 21 37 19 39 -11 9 -226 15
-239 6z m-1405 -162 c-16 -4 -60 -11 -97 -14 -64 -6 -67 -8 -93 -46 -22 -34
-29 -38 -41 -28 -12 10 -20 10 -35 1 -17 -11 -19 -9 -19 11 0 13 8 31 18 39
25 22 146 43 257 45 39 1 39 1 10 -8z m1578 -90 c20 -5 37 -13 37 -18 0 -17
-13 -19 -38 -6 -15 7 -38 18 -52 24 -21 8 -22 10 -5 10 11 1 37 -4 58 -10z
m-603 -70 c0 -24 -4 -38 -10 -34 -17 10 -11 75 7 75 2 0 3 -18 3 -41z m-797
-154 c20 -14 21 -15 2 -16 -121 -8 -149 -4 -123 15 24 18 96 18 121 1z m-143
-5 c0 -13 -11 -13 -30 0 -12 8 -11 10 8 10 12 0 22 -4 22 -10z m-332 -31 c9
-1 24 -2 32 -3 8 -2 26 -3 40 -5 25 -2 25 -2 5 -17 -19 -15 -16 -16 40 -10 67
6 100 -4 69 -22 -30 -16 -9 -26 54 -24 31 1 51 -1 45 -4 -7 -3 -13 -9 -13 -14
0 -10 196 -7 220 3 73 30 120 43 128 35 5 -5 28 -1 56 12 26 11 57 20 69 20
12 0 35 7 51 15 35 19 41 14 38 -30 -2 -23 2 -35 10 -35 8 0 9 -3 3 -8 -6 -4
-16 -20 -23 -35 -21 -48 -61 -94 -95 -110 -87 -41 -428 -48 -585 -12 -95 22
-128 50 -146 125 -13 52 -30 175 -20 138 3 -10 13 -18 22 -19z m122 -3 c0 -3
-4 -8 -10 -11 -5 -3 -10 -1 -10 4 0 6 5 11 10 11 6 0 10 -2 10 -4z m565 -676
c3 -5 -1 -10 -9 -10 -8 0 -18 5 -21 10 -3 6 1 10 9 10 8 0 18 -4 21 -10z m35
-4 c0 -8 -4 -18 -10 -21 -5 -3 -10 3 -10 14 0 12 5 21 10 21 6 0 10 -6 10 -14z
m-200 -49 c0 -5 -4 -5 -10 -2 -5 3 -10 14 -10 23 0 15 2 15 10 2 5 -8 10 -19
10 -23z m39 -113 c-6 -8 -14 -12 -17 -9 -11 11 -11 40 1 47 17 11 31 -20 16
-38z m-199 -4 c0 -5 -2 -10 -4 -10 -3 0 -8 5 -11 10 -3 6 -1 10 4 10 6 0 11
-4 11 -10z m-55 -60 c3 -5 -3 -10 -15 -10 -12 0 -18 5 -15 10 3 6 10 10 15 10
5 0 12 -4 15 -10z"/>
<path d="M5828 6443 c7 -3 16 -2 19 1 4 3 -2 6 -13 5 -11 0 -14 -3 -6 -6z"/>
<path d="M5855 6400 c-8 -13 5 -13 25 0 13 8 13 10 -2 10 -9 0 -20 -4 -23 -10z"/>
<path d="M3352 6338 c6 -18 25 -20 31 -3 5 10 0 15 -14 15 -12 0 -19 -5 -17
-12z"/>
<path d="M7652 6306 c7 -8 15 -12 17 -11 5 6 -10 25 -20 25 -5 0 -4 -6 3 -14z"/>
<path d="M3085 6258 c-31 -18 -35 -28 -35 -105 0 -69 22 -153 40 -153 7 0 16
32 22 76 1 7 8 7 24 0 12 -6 20 -14 18 -18 -3 -4 0 -15 5 -25 5 -10 12 -27 16
-37 8 -27 12 -18 18 47 5 55 27 107 47 107 12 0 70 -72 64 -81 -2 -4 5 -10 16
-14 39 -12 69 -15 74 -7 8 13 -35 67 -74 93 -19 13 -50 36 -68 51 -64 54 -137
83 -167 66z"/>
<path d="M6485 6235 c-55 -25 -70 -42 -58 -67 11 -25 11 -57 0 -75 -4 -6 -1
-14 5 -16 10 -4 10 -6 1 -6 -15 -1 -18 -51 -3 -51 5 0 12 -11 16 -25 6 -23 24
-36 24 -17 0 5 9 17 19 29 18 19 51 148 51 198 0 35 -20 46 -55 30z m-48 -197
c-3 -8 -6 -5 -6 6 -1 11 2 17 5 13 3 -3 4 -12 1 -19z"/>
<path d="M5944 6145 c-8 -33 8 -52 25 -31 15 18 11 48 -6 53 -7 3 -15 -7 -19
-22z"/>
<path d="M5932 6079 c2 -7 10 -15 17 -17 8 -3 12 1 9 9 -2 7 -10 15 -17 17 -8
3 -12 -1 -9 -9z"/>
<path d="M7438 5993 c7 -3 16 -2 19 1 4 3 -2 6 -13 5 -11 0 -14 -3 -6 -6z"/>
<path d="M3388 5940 c-48 -26 -77 -64 -84 -112 -4 -21 -10 -38 -15 -38 -15 0
-31 -41 -23 -58 7 -17 10 -26 13 -39 1 -5 5 -3 9 3 4 6 25 23 47 37 22 15 50
34 63 43 18 14 27 15 48 5 32 -14 44 -7 44 27 0 23 -53 153 -62 152 -2 -1 -19
-10 -40 -20z"/>
<path d="M6220 5825 c0 -60 3 -73 14 -69 8 3 24 0 37 -6 19 -11 21 -10 15 6
-6 17 -6 17 14 -1 20 -19 21 -19 13 1 -4 10 -15 28 -25 38 -19 21 -25 41 -8
31 12 -7 2 21 -18 53 -29 44 -42 28 -42 -53z"/>
<path d="M3018 5883 c-10 -2 -18 -8 -18 -13 0 -4 9 -6 20 -3 11 3 20 9 20 14
0 5 -1 8 -2 8 -2 -1 -11 -3 -20 -6z"/>
<path d="M3010 5840 c-13 -9 -13 -10 0 -10 8 0 22 5 30 10 13 9 13 10 0 10 -8
0 -22 -5 -30 -10z"/>
<path d="M2926 5811 c-4 -6 -3 -11 2 -11 5 0 12 -9 15 -20 4 -18 2 -20 -16
-14 l-22 6 22 -21 c25 -24 53 -18 53 10 0 11 7 22 15 25 26 11 16 21 -16 16
-19 -3 -34 0 -39 8 -5 9 -9 9 -14 1z"/>
<path d="M7093 5755 c-9 -24 1 -27 15 -5 8 13 8 20 2 20 -6 0 -13 -7 -17 -15z"/>
<path d="M6305 5720 c3 -5 8 -10 11 -10 2 0 4 5 4 10 0 6 -5 10 -11 10 -5 0
-7 -4 -4 -10z"/>
<path d="M3460 5500 c0 -20 25 -38 36 -27 7 6 -18 47 -28 47 -5 0 -8 -9 -8
-20z"/>
<path d="M4477 5173 c-4 -3 -7 -13 -7 -22 1 -13 3 -13 11 2 11 19 8 33 -4 20z"/>
<path d="M4702 5151 c7 -9 13 -17 13 -18 0 -1 6 6 12 16 10 16 8 19 -13 19
-21 0 -23 -3 -12 -17z"/>
<path d="M4670 5130 c0 -5 5 -10 10 -10 6 0 10 5 10 10 0 6 -4 10 -10 10 -5 0
-10 -4 -10 -10z"/>
<path d="M5690 4880 c0 -5 6 -10 14 -10 8 0 16 -7 20 -15 3 -9 0 -15 -9 -15
-8 0 -15 5 -15 12 0 9 -3 9 -11 1 -8 -8 -7 -17 3 -32 10 -16 10 -23 2 -29 -8
-5 -3 -18 17 -42 l29 -34 0 26 c0 15 7 34 16 43 9 9 14 25 11 35 -3 11 -1 23
4 26 14 8 -1 26 -17 20 -8 -3 -14 -1 -14 5 0 6 -4 8 -9 4 -5 -3 -12 -1 -16 5
-8 13 -25 13 -25 0z"/>
<path d="M4661 4844 c0 -11 3 -14 6 -6 3 7 2 16 -1 19 -3 4 -6 -2 -5 -13z"/>
<path d="M6317 4833 c-4 -3 -7 -13 -7 -22 1 -13 3 -13 11 2 11 19 8 33 -4 20z"/>
<path d="M4159 4758 c-5 -17 -4 -48 2 -48 13 0 20 18 9 25 -6 4 -8 11 -5 16 4
5 4 9 1 9 -3 0 -6 -1 -7 -2z"/>
<path d="M4602 4709 c5 -14 72 -32 98 -26 17 4 -27 25 -74 34 -22 5 -28 3 -24
-8z"/>
<path d="M5720 4695 c0 -9 6 -12 15 -9 8 4 15 10 15 15 0 5 -7 9 -15 9 -8 0
-15 -7 -15 -15z"/>
<path d="M3988 4623 c7 -3 16 -2 19 1 4 3 -2 6 -13 5 -11 0 -14 -3 -6 -6z"/>
<path d="M3929 4609 c-1 -2 -2 -25 -3 -51 -2 -44 0 -48 21 -48 14 0 23 -6 23
-15 0 -8 5 -15 11 -15 12 0 1 43 -12 48 -5 2 -9 16 -9 32 0 15 -7 33 -15 40
-8 7 -15 11 -16 9z"/>
<path d="M3720 4571 c0 -11 31 -24 39 -16 3 3 -1 10 -9 15 -19 12 -30 12 -30
1z"/>
<path d="M5000 4530 c0 -5 5 -10 10 -10 6 0 10 5 10 10 0 6 -4 10 -10 10 -5 0
-10 -4 -10 -10z"/>
<path d="M4027 4510 c3 -11 12 -20 21 -20 13 0 12 3 -3 20 -10 11 -19 20 -21
20 -1 0 0 -9 3 -20z"/>
<path d="M4710 4510 c19 -13 30 -13 30 0 0 6 -10 10 -22 10 -19 0 -20 -2 -8
-10z"/>
<path d="M4760 4505 c0 -8 6 -15 13 -15 7 0 23 -9 35 -20 29 -28 35 -25 18 9
-20 39 -66 57 -66 26z"/>
<path d="M4845 4480 c3 -5 8 -10 11 -10 2 0 4 5 4 10 0 6 -5 10 -11 10 -5 0
-7 -4 -4 -10z"/>
<path d="M4166 4391 c-4 -7 -5 -15 -2 -18 9 -9 19 4 14 18 -4 11 -6 11 -12 0z"/>
<path d="M4770 4396 c0 -2 7 -7 16 -10 8 -3 12 -2 9 4 -6 10 -25 14 -25 6z"/>
<path d="M5850 4310 c0 -5 5 -10 10 -10 6 0 10 5 10 10 0 6 -4 10 -10 10 -5 0
-10 -4 -10 -10z"/>
<path d="M5030 4040 c0 -5 5 -10 11 -10 5 0 7 5 4 10 -3 6 -8 10 -11 10 -2 0
-4 -4 -4 -10z"/>
<path d="M8130 3506 c0 -18 -7 -55 -15 -81 -14 -48 -14 -50 15 -94 51 -77 36
-159 -43 -226 -67 -58 -144 -57 -202 2 -39 40 -75 148 -62 189 16 51 -8 133
-31 109 -4 -4 -6 -31 -5 -60 2 -44 -1 -57 -21 -76 -24 -25 -45 -76 -51 -130
-7 -55 -32 -72 -95 -66 -55 5 -76 -4 -90 -39 -4 -9 -14 -9 -45 3 -98 36 -117
23 -32 -21 28 -16 81 -45 117 -65 36 -21 83 -48 105 -60 103 -59 299 -184 345
-219 14 -10 45 -30 69 -43 59 -32 173 -140 166 -157 -6 -17 20 -68 39 -75 19
-8 86 -112 86 -135 0 -10 4 -22 9 -27 5 -6 30 -45 54 -89 l45 -78 49 73 c130
193 290 503 394 762 44 111 46 117 22 115 -10 -1 -29 0 -43 1 l-25 3 25 9 c24
8 24 8 -5 7 -36 -1 -76 14 -94 36 -20 24 -27 20 -45 -21 -19 -45 -38 -69 -89
-107 -36 -27 -52 -31 -112 -23 -25 4 -73 34 -102 64 -12 13 -26 23 -31 23 -5
0 -15 15 -22 33 -33 87 -53 117 -80 117 -21 0 -34 25 -31 57 1 12 -3 31 -8 42
-18 34 4 108 44 146 18 18 35 31 38 29 2 -3 10 2 16 10 10 12 7 15 -19 14 -18
-1 -34 -7 -37 -15 -5 -12 -8 -12 -22 1 -9 8 -28 18 -44 21 -15 4 -37 20 -50
35 -12 15 -36 30 -54 33 -32 6 -33 5 -33 -27z"/>
<path d="M6499 3313 c-8 -21 -6 -30 10 -47 10 -12 26 -37 36 -56 21 -42 64
-90 81 -90 15 0 54 -47 54 -66 0 -7 -7 -14 -15 -16 -12 -2 -12 -7 -2 -28 7
-13 22 -29 34 -35 11 -6 29 -17 38 -25 16 -14 37 -14 110 -3 17 2 55 5 85 5
30 1 58 6 61 11 10 14 38 1 45 -20 25 -75 59 -149 72 -159 8 -6 12 -16 8 -22
-3 -6 3 -27 14 -46 14 -25 17 -42 11 -58 l-8 -23 -7 22 c-9 29 -65 44 -140 38
-42 -3 -56 -1 -53 8 2 7 22 13 45 15 42 3 60 22 21 22 -11 0 -17 5 -14 10 13
21 63 11 85 -17 l22 -28 -4 30 -3 30 -105 5 c-102 5 -104 5 -65 17 22 7 51 13
65 14 17 1 19 3 8 6 -10 2 -18 9 -18 14 0 6 -4 7 -10 4 -5 -3 -21 6 -35 22
-25 29 -32 53 -15 53 6 0 10 -6 10 -13 0 -9 11 -12 35 -9 41 5 70 -15 79 -54
6 -23 26 -34 26 -14 0 6 -4 10 -9 10 -5 0 -11 12 -14 28 -9 39 -45 94 -58 86
-8 -4 -8 -9 0 -17 17 -17 13 -24 -14 -24 -26 0 -34 12 -12 20 6 3 -36 4 -95 3
-110 -2 -128 -6 -110 -28 18 -23 42 -89 29 -81 -26 16 -37 12 -26 -9 6 -12 17
-17 26 -14 8 3 24 -1 36 -9 22 -15 15 -20 -25 -16 -21 3 -22 -7 -4 -31 8 -11
16 -14 22 -8 7 7 18 2 34 -15 l23 -25 -36 0 c-41 0 -46 -11 -18 -39 11 -11 16
-22 13 -26 -4 -4 1 -12 10 -19 13 -10 31 -11 70 -4 29 5 79 9 111 9 31 0 57 4
57 10 0 5 -21 9 -47 9 -54 0 -86 13 -58 24 29 11 94 7 130 -8 18 -8 36 -12 39
-8 4 3 13 -3 20 -14 18 -23 3 -43 -18 -25 -9 7 -21 11 -27 9 -7 -2 4 -12 24
-21 20 -10 39 -22 43 -28 10 -18 -6 -24 -27 -10 -12 7 -24 9 -27 6 -8 -8 27
-35 45 -35 7 0 13 -7 13 -15 0 -16 -12 -20 -24 -8 -11 12 -76 31 -127 38 -29
4 -46 11 -43 17 4 6 21 8 38 5 17 -2 40 -1 51 3 19 7 18 8 -5 15 -31 10 -217
12 -226 2 -4 -3 -2 -13 5 -20 6 -8 8 -22 5 -31 -4 -10 1 -25 11 -36 9 -10 18
-37 18 -58 1 -22 5 -38 8 -36 3 2 14 -16 24 -39 9 -23 23 -57 31 -76 8 -18 17
-53 21 -77 3 -25 10 -47 14 -50 5 -3 9 -16 9 -29 0 -13 4 -26 9 -29 5 -3 17
-41 26 -83 34 -157 32 -153 70 -153 19 0 37 -4 40 -10 3 -6 -9 -9 -32 -7 -33
2 -38 -1 -36 -18 2 -11 5 -46 8 -78 3 -32 9 -66 14 -75 4 -9 6 -23 4 -30 -7
-19 18 -44 39 -39 10 3 21 1 24 -4 3 -5 -9 -9 -25 -9 l-31 0 5 -97 c2 -54 9
-156 15 -228 12 -160 18 -259 25 -394 2 -57 7 -106 9 -108 6 -6 104 60 271
185 177 132 186 140 180 166 -2 12 -7 71 -10 131 -5 93 -11 147 -25 200 -1 6
-2 17 -1 24 2 30 24 -7 27 -46 12 -163 28 -313 33 -313 3 1 27 20 54 45 33 31
47 51 48 72 1 17 3 21 6 10 2 -9 9 -17 14 -17 7 0 229 215 229 222 0 2 -5 19
-11 38 -12 38 -15 54 -24 113 -3 21 -10 47 -15 57 -6 10 -10 37 -10 59 0 23
-4 41 -10 41 -5 0 -10 17 -10 38 0 21 -6 58 -14 83 -26 83 -36 124 -40 164 -3
22 -11 65 -20 95 -8 30 -26 111 -41 180 -25 118 -51 213 -63 235 -6 10 -9 27
-15 76 -5 34 -13 46 -37 52 -30 8 -32 -7 -5 -33 29 -28 32 -40 8 -41 -15 0
-14 -3 5 -16 25 -18 29 -33 7 -33 -22 0 -18 -21 5 -27 29 -8 24 -18 -9 -20
-16 -1 -35 4 -41 12 -7 8 -30 20 -51 25 -22 6 -39 15 -39 21 0 6 8 8 18 5 9
-3 31 -8 47 -11 l30 -6 -24 20 c-16 15 -37 21 -68 21 l-45 0 7 -32 c4 -18 14
-44 21 -58 15 -27 62 -227 70 -300 3 -25 10 -70 16 -100 6 -30 12 -80 14 -110
2 -30 8 -88 15 -128 6 -41 8 -76 5 -79 -3 -4 -2 -11 3 -17 11 -15 22 -76 13
-75 -4 0 -20 9 -37 20 -16 11 -38 22 -47 25 -25 9 -23 23 2 17 17 -5 20 0 20
30 0 25 -6 40 -22 51 -17 13 -19 16 -6 21 13 5 13 12 1 58 -7 28 -13 67 -13
85 0 25 -5 35 -20 39 -24 6 -26 19 -4 27 14 5 15 15 10 56 -4 28 -15 70 -25
93 -11 24 -16 50 -11 56 7 12 40 -71 40 -102 0 -25 33 -117 41 -117 17 0 -32
251 -84 426 -13 44 -35 77 -46 69 -4 -2 -7 6 -7 18 1 15 -4 21 -14 19 -11 -3
-12 0 -4 8 13 13 -5 77 -27 94 -8 6 -15 24 -16 40 0 16 -6 32 -12 36 -6 3 -13
16 -16 29 -5 30 -46 109 -62 123 -16 13 -18 -12 -4 -40 37 -75 61 -131 61
-145 0 -9 4 -18 9 -21 5 -3 7 -14 4 -24 -2 -10 5 -26 16 -36 11 -10 17 -24 15
-31 -3 -7 -1 -16 5 -20 6 -3 11 -15 11 -26 0 -10 4 -19 9 -19 5 0 7 -9 4 -20
-7 -28 -27 -20 -31 13 -3 23 -8 27 -35 27 -29 1 -30 2 -14 14 22 17 22 36 0
36 -15 0 -14 2 2 14 19 14 19 15 1 35 -11 12 -27 21 -38 21 -10 0 -18 5 -18
10 0 6 5 10 11 10 19 0 4 45 -18 55 -24 10 -31 25 -13 25 6 0 10 4 10 10 0 13
-91 140 -100 140 -4 0 -6 16 -4 35 4 61 24 73 44 25 15 -37 48 -75 57 -67 3 4
1 19 -6 33 -17 39 -3 43 27 9 25 -27 34 -30 100 -33 44 -2 90 -10 118 -23 26
-11 49 -18 51 -15 10 10 -116 73 -165 82 -21 4 -141 45 -224 76 -20 8 -45 21
-55 30 -19 17 -118 64 -143 69 -8 1 -22 -1 -30 -5 -26 -11 -95 8 -95 26 0 9
-4 20 -8 24 -4 4 -7 0 -7 -8 0 -25 -21 -27 -62 -7 -21 11 -45 19 -53 19 -9 0
-40 20 -68 45 -43 38 -140 95 -162 95 -3 0 -10 -12 -16 -27z m451 -220 c0 -13
-3 -13 -15 -3 -8 7 -15 16 -15 21 0 5 7 6 15 3 8 -4 15 -13 15 -21z m139 -47
c11 -24 30 -67 44 -97 25 -53 56 -150 78 -239 13 -54 13 -54 0 -58 -5 -2 -13
17 -16 43 -5 28 -15 51 -27 59 -11 8 -15 15 -8 18 19 6 -32 141 -58 153 -23
10 -30 25 -12 25 16 0 11 27 -15 82 -29 59 -28 58 -15 58 6 0 19 -20 29 -44z
m-191 -416 c15 -1 15 -2 -1 -11 -21 -12 -47 -5 -47 12 0 6 7 8 16 5 9 -3 23
-6 32 -6z m368 -88 c12 -33 20 -63 18 -65 -3 -2 5 -24 16 -48 26 -59 26 -98 0
-45 -11 22 -20 48 -20 58 0 10 -9 23 -19 30 -14 9 -17 16 -10 24 7 8 6 15 -3
20 -13 9 -16 10 -40 13 -7 1 -3 6 10 11 23 10 29 25 12 35 -14 9 -13 38 2 33
6 -2 21 -32 34 -66z m-346 -2 c0 -5 -4 -10 -10 -10 -5 0 -10 5 -10 10 0 6 5
10 10 10 6 0 10 -4 10 -10z m561 -125 c10 -33 17 -61 15 -62 -3 -4 -32 54 -40
80 -3 9 -16 18 -28 18 -17 1 -18 2 -5 6 9 2 17 9 17 15 0 5 5 8 11 6 6 -2 20
-30 30 -63z m-538 48 c-7 -2 -19 -2 -25 0 -7 3 -2 5 12 5 14 0 19 -2 13 -5z
m172 -7 c19 -8 35 -19 36 -23 0 -4 2 -21 4 -36 3 -24 1 -28 -13 -22 -9 3 -29
9 -44 12 -16 3 -28 10 -28 15 0 6 11 7 26 4 25 -7 25 -6 9 10 -14 14 -21 15
-36 6 -15 -9 -19 -9 -19 0 0 6 -7 20 -17 30 -15 17 -14 18 16 18 17 0 47 -7
66 -14z m565 -17 c0 -5 9 -9 19 -9 11 0 23 -5 27 -12 5 -8 2 -9 -9 -5 -9 3
-23 -1 -31 -9 -13 -13 -17 -12 -31 10 -9 14 -14 30 -11 35 8 12 36 3 36 -10z
m-477 -45 c-4 -12 -8 -12 -18 3 -16 22 -8 38 10 23 8 -6 11 -18 8 -26z m151
-124 l7 -25 -14 25 c-8 14 -17 36 -21 50 l-7 25 14 -25 c8 -14 17 -36 21 -50z
m-219 -50 c3 -5 -1 -10 -9 -10 -9 0 -16 5 -16 10 0 6 4 10 9 10 6 0 13 -4 16
-10z m242 -32 c-3 -8 -6 -5 -6 6 -1 11 2 17 5 13 3 -3 4 -12 1 -19z m338 2 c3
-5 1 -10 -4 -10 -6 0 -11 5 -11 10 0 6 2 10 4 10 3 0 8 -4 11 -10z m-455 -202
c0 -13 -25 -9 -68 12 -40 19 -49 30 -37 42 7 7 105 -44 105 -54z m187 7 c14
-43 9 -45 -11 -3 -18 36 -19 38 -8 38 5 0 13 -16 19 -35z m-117 -11 c0 -2 -7
-4 -15 -4 -8 0 -15 4 -15 10 0 5 7 7 15 4 8 -4 15 -8 15 -10z m444 -7 c18 -13
18 -14 1 -21 -19 -7 -48 11 -39 25 7 12 17 11 38 -4z m-288 -94 c3 -18 10 -33
15 -33 5 0 9 -11 9 -25 0 -14 7 -42 15 -61 8 -20 12 -40 9 -45 -10 -17 -21 0
-28 41 -3 23 -10 49 -15 58 -5 9 -14 37 -21 61 -6 23 -14 50 -17 60 -3 12 -1
12 11 -3 9 -11 19 -34 22 -53z m-201 -80 l30 -14 -32 6 c-73 12 -93 17 -99 26
-8 13 60 1 101 -18z m95 -7 c0 -11 -19 -15 -25 -6 -3 5 1 10 9 10 9 0 16 -2
16 -4z m434 -22 c22 -9 20 -24 -3 -24 -21 0 -34 13 -24 24 8 7 8 7 27 0z
m-524 -66 c10 -6 0 -7 -30 -3 -25 3 -49 11 -55 16 -12 13 62 1 85 -13z m270
-89 c0 -11 3 -20 8 -20 46 -7 72 -7 72 -1 0 12 -14 28 -35 40 -19 11 -19 11 5
11 14 0 37 -10 51 -22 22 -18 29 -36 37 -92 5 -38 8 -72 6 -74 -2 -2 -23 11
-48 30 -37 28 -41 35 -24 37 11 2 26 -5 33 -15 11 -14 14 -15 14 -3 0 19 -66
70 -91 70 -16 0 -18 -5 -12 -36 5 -29 4 -36 -7 -32 -8 3 -13 13 -11 22 2 10
-1 23 -7 29 -5 7 -12 41 -16 77 -6 65 -6 65 10 31 8 -18 15 -42 15 -52z m290
35 c0 -2 -9 -4 -20 -4 -11 0 -20 4 -20 9 0 5 9 7 20 4 11 -3 20 -7 20 -9z
m-610 -24 c0 -5 -4 -10 -10 -10 -5 0 -10 5 -10 10 0 6 5 10 10 10 6 0 10 -4
10 -10z m70 -10 c13 -9 13 -10 0 -9 -8 0 -24 4 -35 9 l-20 9 20 0 c11 0 27 -4
35 -9z m31 -50 c16 0 29 -5 29 -10 0 -13 -116 -4 -139 11 -12 7 -3 9 33 5 27
-3 62 -6 77 -6z m517 -7 c-10 -2 -26 -2 -35 0 -10 3 -2 5 17 5 19 0 27 -2 18
-5z m-533 -53 c28 -4 38 -8 24 -9 -46 -2 -119 11 -113 21 3 5 13 6 23 3 9 -4
39 -11 66 -15z m549 2 c3 -5 -8 -9 -24 -9 -16 0 -27 4 -24 9 3 4 14 8 24 8 10
0 21 -4 24 -8z m-192 -142 l-5 -35 -12 45 c-13 51 -9 70 10 43 7 -10 10 -33 7
-53z m43 -27 c3 -27 9 -59 12 -72 4 -15 2 -22 -4 -18 -6 4 -14 28 -18 54 -3
27 -9 59 -12 72 -4 15 -2 22 4 18 6 -4 14 -28 18 -54z"/>
<path d="M7652 1588 c5 -15 28 -23 28 -10 0 5 -7 13 -16 16 -10 4 -14 1 -12
-6z"/>
<path d="M4140 3300 c0 -5 5 -10 10 -10 6 0 10 5 10 10 0 6 -4 10 -10 10 -5 0
-10 -4 -10 -10z"/>
<path d="M6770 3276 c0 -13 20 -26 41 -26 18 0 8 17 -16 28 -20 9 -25 9 -25
-2z"/>
<path d="M4310 3264 l-25 -15 25 5 c14 3 36 6 50 7 23 0 23 1 5 9 -27 11 -26
12 -55 -6z"/>
<path d="M6783 3213 c9 -9 19 -14 23 -11 10 10 -6 28 -24 28 -15 0 -15 -1 1
-17z"/>
<path d="M4430 3136 c0 -2 8 -10 18 -17 15 -13 16 -12 3 4 -13 16 -21 21 -21
13z"/>
<path d="M4460 3100 c-8 -5 -11 -12 -7 -16 4 -4 13 -2 19 4 15 15 7 24 -12 12z"/>
<path d="M4450 3021 c0 -5 7 -11 15 -15 8 -3 15 -1 15 3 0 5 -7 11 -15 15 -8
3 -15 1 -15 -3z"/>
<path d="M5225 2950 c-3 -5 -2 -10 4 -10 5 0 13 5 16 10 3 6 2 10 -4 10 -5 0
-13 -4 -16 -10z"/>
<path d="M6705 2910 c3 -5 8 -10 11 -10 2 0 4 5 4 10 0 6 -5 10 -11 10 -5 0
-7 -4 -4 -10z"/>
<path d="M7360 2907 c0 -1 9 -20 20 -42 11 -22 20 -47 20 -56 0 -9 7 -22 15
-29 8 -6 13 -15 12 -19 -2 -7 29 -86 44 -111 5 -8 13 -25 19 -37 10 -24 25
-30 34 -14 3 5 26 6 51 3 29 -3 45 -1 45 7 0 10 -16 16 -70 24 -17 3 -14 5 12
6 20 0 39 5 42 10 9 14 -4 41 -20 41 -8 0 -14 9 -14 21 0 39 -19 59 -56 59
-19 0 -33 4 -30 9 3 5 15 7 25 4 10 -3 21 0 25 5 7 11 -55 78 -68 74 -5 -2
-12 1 -15 5 -14 19 -91 53 -91 40z"/>
<path d="M6720 2871 c0 -19 17 -38 25 -29 7 7 -7 48 -16 48 -5 0 -9 -9 -9 -19z"/>
<path d="M7650 2870 c0 -10 85 -68 160 -108 24 -13 57 -33 73 -44 15 -11 30
-18 33 -15 9 8 -38 47 -57 47 -10 0 -19 3 -21 8 -4 11 -90 72 -101 72 -4 0
-23 11 -41 25 -35 27 -46 30 -46 15z"/>
<path d="M6980 2840 c0 -5 5 -10 11 -10 5 0 7 5 4 10 -3 6 -8 10 -11 10 -2 0
-4 -4 -4 -10z"/>
<path d="M7955 2670 c3 -5 11 -10 16 -10 6 0 7 5 4 10 -3 6 -11 10 -16 10 -6
0 -7 -4 -4 -10z"/>
<path d="M7760 2627 c0 -27 26 -38 133 -53 20 -3 37 -3 37 -1 0 11 -70 48 -97
52 -15 2 -38 7 -50 11 -17 5 -23 2 -23 -9z"/>
<path d="M7780 2560 c0 -5 4 -10 9 -10 5 0 18 -3 28 -7 16 -6 16 -5 4 10 -15
19 -41 23 -41 7z"/>
<path d="M7855 2540 c28 -12 45 -12 45 0 0 6 -15 10 -32 9 -28 0 -30 -2 -13
-9z"/>
<path d="M8040 2532 c0 -5 9 -17 19 -26 14 -13 21 -14 27 -5 4 7 -1 18 -11 26
-21 15 -35 17 -35 5z"/>
<path d="M7802 2508 c3 -7 16 -14 29 -14 13 -1 31 -4 39 -7 8 -3 22 -8 30 -11
8 -3 -6 -4 -31 -4 -55 2 -69 -6 -62 -32 5 -21 10 -23 53 -24 16 -1 26 -8 28
-19 3 -16 1 -17 -16 -8 -51 27 -53 5 -17 -154 28 -124 30 -156 13 -174 -11
-10 -10 -11 5 -6 12 5 17 2 17 -11 0 -11 7 -28 15 -38 8 -11 15 -36 15 -56 0
-21 5 -51 11 -69 9 -24 8 -35 -2 -48 -8 -10 -9 -14 -2 -10 15 9 23 -4 27 -45
1 -19 8 -44 15 -56 7 -12 9 -27 6 -32 -3 -6 -1 -10 4 -10 17 0 13 -27 -4 -34
-8 -3 -15 -10 -15 -16 0 -6 5 -8 10 -5 6 3 10 -1 10 -10 0 -8 7 -18 15 -21 9
-4 13 -13 10 -24 -3 -9 1 -22 8 -29 8 -6 12 -23 10 -39 -4 -25 -1 -23 42 23
74 80 187 214 243 288 l52 69 -27 21 c-16 11 -29 21 -30 22 -2 1 -6 16 -9 33
-4 22 -3 32 5 32 7 0 10 -4 7 -9 -7 -10 79 -55 91 -48 5 3 17 21 27 41 16 29
17 41 8 61 -6 14 -18 25 -26 25 -11 0 -13 10 -10 45 4 37 1 50 -22 80 -14 19
-33 35 -41 35 -7 0 -16 7 -19 15 -12 31 -24 13 -25 -37 -1 -29 -4 -44 -6 -33
-9 37 -42 102 -58 115 -16 13 -15 15 2 28 17 12 16 15 -14 42 -19 17 -28 32
-22 36 6 3 3 11 -8 20 -24 18 -34 18 -27 0 3 -8 1 -23 -5 -33 -9 -16 -11 -14
-25 17 -8 19 -15 29 -16 23 0 -15 -56 -18 -65 -3 -3 6 -11 10 -17 10 -7 0 7
-16 30 -36 23 -19 42 -39 42 -43 0 -4 -8 -16 -17 -28 -17 -21 -17 -21 -70 30
-58 55 -64 67 -33 67 26 0 25 8 -5 32 -14 11 -25 26 -25 33 0 15 -41 30 -108
39 -33 5 -43 3 -40 -6z m323 -168 c3 -5 1 -10 -4 -10 -6 0 -11 5 -11 10 0 6 2
10 4 10 3 0 8 -4 11 -10z m53 -16 c12 -4 22 -10 22 -15 0 -15 -48 -10 -54 6
-6 16 -2 18 32 9z m-108 -94 c0 -5 -7 -7 -15 -4 -8 4 -15 8 -15 10 0 2 7 4 15
4 8 0 15 -4 15 -10z m18 -64 c5 -13 7 -38 3 -56 l-6 -33 -18 27 c-10 14 -15
31 -12 37 4 5 1 16 -5 24 -14 17 -5 36 14 29 7 -3 18 -15 24 -28z m117 -86 c3
-5 1 -10 -4 -10 -6 0 -11 5 -11 10 0 6 2 10 4 10 3 0 8 -4 11 -10z m-104 -119
c4 -18 13 -37 20 -42 11 -6 10 -12 -4 -27 -10 -11 -15 -26 -11 -36 3 -9 2 -16
-4 -16 -10 0 -15 17 -27 98 -4 25 -12 42 -20 42 -8 0 -16 4 -19 9 -3 4 9 8 26
7 28 -1 33 -5 39 -35z m133 -90 c3 -4 3 -11 0 -14 -8 -8 -34 3 -34 14 0 11 27
12 34 0z m-124 -81 c0 -22 -4 -40 -9 -40 -13 0 -18 19 -13 52 6 42 22 34 22
-12z m10 -80 c0 -5 -4 -10 -9 -10 -6 0 -13 5 -16 10 -3 6 1 10 9 10 9 0 16 -4
16 -10z m-20 -120 c0 -5 -7 -10 -15 -10 -8 0 -15 5 -15 10 0 6 7 10 15 10 8 0
15 -4 15 -10z"/>
<path d="M8120 2500 c0 -5 4 -10 9 -10 5 0 11 -10 13 -22 2 -12 8 -23 15 -25
7 -3 9 3 6 16 -3 13 -1 21 7 21 10 0 10 3 0 15 -14 17 -50 20 -50 5z"/>
<path d="M8283 2345 c4 -8 2 -17 -3 -20 -21 -13 -8 -37 26 -51 45 -19 53 -12
28 24 -11 15 -23 35 -27 45 -3 9 -11 17 -18 17 -6 0 -9 -7 -6 -15z"/>
<path d="M7600 1997 c0 -37 23 -162 33 -172 6 -7 8 -2 4 15 -3 14 -9 52 -12
85 -7 60 -24 110 -25 72z"/>
<path d="M7630 1777 c0 -14 5 -29 10 -32 7 -4 8 3 4 22 -9 38 -14 42 -14 10z"/>
</g>
</svg>
